<svg xmlns="http://www.w3.org/2000/svg" xmlns:xlink="http://www.w3.org/1999/xlink" xmlns:lucid="lucid" width="1680" height="591.52"><g transform="translate(-120 -59.47999999999999)" lucid:page-tab-id="0_0"><path d="M0 0h1870.4v1323.2H0z" fill="#fff"/><path d="M820 79.48h280v77.04H820z" stroke="#000" stroke-opacity="0" stroke-width="2" fill="#fff" fill-opacity="0"/><use xlink:href="#a" transform="matrix(1,0,0,1,825,84.47999999999999) translate(9.666666666666657 43.480000000000004)"/><use xlink:href="#b" transform="matrix(1,0,0,1,825,84.47999999999999) translate(68.46666666666667 43.480000000000004)"/><use xlink:href="#c" transform="matrix(1,0,0,1,825,84.47999999999999) translate(140.25333333333333 43.480000000000004)"/><path d="M1240 279.48h280v77.04h-280z" stroke="#000" stroke-opacity="0" stroke-width="2" fill="#fff" fill-opacity="0"/><use xlink:href="#a" transform="matrix(1,0,0,1,1245,284.48) translate(22.78666666666666 43.480000000000004)"/><use xlink:href="#b" transform="matrix(1,0,0,1,1245,284.48) translate(81.58666666666667 43.480000000000004)"/><use xlink:href="#d" transform="matrix(1,0,0,1,1245,284.48) translate(153.37333333333333 43.480000000000004)"/><path d="M140 480h240v60H140z" stroke="#000" stroke-opacity="0" stroke-width="2" fill="#fff" fill-opacity="0"/><use xlink:href="#e" transform="matrix(1,0,0,1,145,485) translate(83.69333333333333 34.480000000000004)"/><path d="M400 279.48h280v77.04H400z" stroke="#000" stroke-opacity="0" stroke-width="2" fill="#fff" fill-opacity="0"/><use xlink:href="#a" transform="matrix(1,0,0,1,405,284.48) translate(22.78666666666666 43.480000000000004)"/><use xlink:href="#b" transform="matrix(1,0,0,1,405,284.48) translate(81.58666666666667 43.480000000000004)"/><use xlink:href="#d" transform="matrix(1,0,0,1,405,284.48) translate(153.37333333333333 43.480000000000004)"/><path d="M960 156.52V218H540v43.24" stroke="#000" stroke-width="2" fill="none"/><path/><path d="M540 276.24l-4.64-14.26h9.28z"/><path d="M540 279.48l-6-18.5h12zm-3.26-16.5L540 273l3.26-10.02z"/><path d="M960 156.52V218h420v43.24" stroke="#000" stroke-width="2" fill="none"/><path/><path d="M1380 276.24l-4.64-14.26h9.28z"/><path d="M1380 279.48l-6-18.5h12zm-3.26-16.5L1380 273l3.26-10.02z"/><path d="M540 356.52v61.74H260v43.5" stroke="#000" stroke-width="2" fill="none"/><path/><path d="M260 476.76l-4.64-14.26h9.28z"/><path d="M260 480l-6-18.5h12zm-3.26-16.5l3.26 10.03 3.26-10.03z"/><path d="M420 480h240v60H420z" stroke="#000" stroke-opacity="0" stroke-width="2" fill="#fff" fill-opacity="0"/><use xlink:href="#f" transform="matrix(1,0,0,1,425,485) translate(40.50666666666666 34.480000000000004)"/><use xlink:href="#g" transform="matrix(1,0,0,1,425,485) translate(112.42666666666668 34.480000000000004)"/><path d="M700 480h240v60H700z" stroke="#000" stroke-opacity="0" stroke-width="2" fill="#fff" fill-opacity="0"/><use xlink:href="#h" transform="matrix(1,0,0,1,705,485) translate(34.91999999999999 34.480000000000004)"/><use xlink:href="#g" transform="matrix(1,0,0,1,705,485) translate(118.01333333333334 34.480000000000004)"/><path d="M980 480h240v60H980z" stroke="#000" stroke-opacity="0" stroke-width="2" fill="#fff" fill-opacity="0"/><use xlink:href="#i" transform="matrix(1,0,0,1,985,485) translate(37.79999999999998 34.480000000000004)"/><use xlink:href="#j" transform="matrix(1,0,0,1,985,485) translate(164.65333333333334 34.480000000000004)"/><path d="M1260 480h240v60h-240z" stroke="#000" stroke-opacity="0" stroke-width="2" fill="#fff" fill-opacity="0"/><use xlink:href="#f" transform="matrix(1,0,0,1,1265,485) translate(30.813333333333333 34.480000000000004)"/><use xlink:href="#k" transform="matrix(1,0,0,1,1265,485) translate(102.73333333333335 34.480000000000004)"/><path d="M1540 480h240v60h-240z" stroke="#000" stroke-opacity="0" stroke-width="2" fill="#fff" fill-opacity="0"/><use xlink:href="#h" transform="matrix(1,0,0,1,1545,485) translate(25.22666666666666 34.480000000000004)"/><use xlink:href="#k" transform="matrix(1,0,0,1,1545,485) translate(108.32000000000001 34.480000000000004)"/><path d="M1380 356.52v61.74h280v43.5" stroke="#000" stroke-width="2" fill="none"/><path/><path d="M1660 476.76l-4.64-14.26h9.28z"/><path d="M1660 480l-6-18.5h12zm-3.26-16.5l3.26 10.03 3.26-10.03z"/><path d="M1380 356.52v105.24" stroke="#000" stroke-width="2" fill="none"/><path/><path d="M1380 476.76l-4.64-14.26h9.28z"/><path d="M1380 480l-6-18.5h12zm-3.26-16.5l3.26 10.03 3.26-10.03z"/><path d="M540 356.52v105.24" stroke="#000" stroke-width="2" fill="none"/><path/><path d="M540 476.76l-4.64-14.26h9.28z"/><path d="M540 480l-6-18.5h12zm-3.26-16.5l3.26 10.03 3.26-10.03z"/><path d="M540 356.52v61.74h280v43.5" stroke="#000" stroke-width="2" fill="none"/><path/><path d="M820 476.76l-4.64-14.26h9.28z"/><path d="M820 480l-6-18.5h12zm-3.26-16.5l3.26 10.03 3.26-10.03z"/><path d="M1380 356.52v61.74h-280v43.5" stroke="#000" stroke-width="2" fill="none"/><path/><path d="M1100 476.76l-4.64-14.26h9.28z"/><path d="M1100 480l-6-18.5h12zm-3.26-16.5l3.26 10.03 3.26-10.03z"/><path d="M540 160h240v60H540z" stroke="#000" stroke-opacity="0" stroke-width="2" fill="#fff" fill-opacity="0"/><use xlink:href="#l" transform="matrix(1,0,0,1,545,165) translate(108.37333333333333 42.72)"/><path d="M1140 160h240v60h-240z" stroke="#000" stroke-opacity="0" stroke-width="2" fill="#fff" fill-opacity="0"/><use xlink:href="#m" transform="matrix(1,0,0,1,1145,165) translate(99.05333333333333 42.72)"/><use xlink:href="#n" transform="matrix(1,0,0,1,1145,165) translate(117.69333333333333 42.72)"/><path d="M260 356.52h240v60H260z" stroke="#000" stroke-opacity="0" stroke-width="2" fill="#fff" fill-opacity="0"/><use xlink:href="#l" transform="matrix(1,0,0,1,265,361.52000000000004) translate(108.37333333333333 42.72)"/><path d="M1100 360h240v60h-240z" stroke="#000" stroke-opacity="0" stroke-width="2" fill="#fff" fill-opacity="0"/><use xlink:href="#l" transform="matrix(1,0,0,1,1105,365) translate(108.37333333333333 42.72)"/><path d="M580 360h240v60H580z" stroke="#000" stroke-opacity="0" stroke-width="2" fill="#fff" fill-opacity="0"/><use xlink:href="#o" transform="matrix(1,0,0,1,585,365) translate(108.37333333333333 42.72)"/><path d="M1420 360h240v60h-240z" stroke="#000" stroke-opacity="0" stroke-width="2" fill="#fff" fill-opacity="0"/><use xlink:href="#o" transform="matrix(1,0,0,1,1425,365) translate(108.37333333333333 42.72)"/><path d="M1260 340h240v76.52h-240z" stroke="#000" stroke-opacity="0" stroke-width="2" fill="#fff"/><use xlink:href="#p" transform="matrix(1,0,0,1,1265,345) translate(27.879999999999995 59.72)"/><use xlink:href="#q" transform="matrix(1,0,0,1,1265,345) translate(46.519999999999996 59.72)"/><use xlink:href="#r" transform="matrix(1,0,0,1,1265,345) translate(101.13333333333334 59.72)"/><use xlink:href="#s" transform="matrix(1,0,0,1,1265,345) translate(119.77333333333334 59.72)"/><use xlink:href="#t" transform="matrix(1,0,0,1,1265,345) translate(138.41333333333336 59.72)"/><path d="M420 340h240v76.52H420z" stroke="#000" stroke-opacity="0" stroke-width="2" fill="#fff"/><use xlink:href="#p" transform="matrix(1,0,0,1,425,345) translate(27.879999999999995 59.72)"/><use xlink:href="#q" transform="matrix(1,0,0,1,425,345) translate(46.519999999999996 59.72)"/><use xlink:href="#r" transform="matrix(1,0,0,1,425,345) translate(101.13333333333334 59.72)"/><use xlink:href="#s" transform="matrix(1,0,0,1,425,345) translate(119.77333333333334 59.72)"/><use xlink:href="#t" transform="matrix(1,0,0,1,425,345) translate(138.41333333333336 59.72)"/><path d="M540 540v40H260v-21.76" stroke="#b2b2b2" stroke-width="2" fill="none"/><path fill="#b2b2b2"/><path d="M264.64 557.5h-9.28l4.64-14.26z" fill="#b2b2b2"/><path d="M266 558.5h-12l6-18.5zm-9.26-2h6.52L260 546.47z" fill="#b2b2b2"/><path d="M820 540v40H260v-21.76" stroke="#b2b2b2" stroke-width="2" fill="none"/><path fill="#b2b2b2"/><path d="M264.64 557.5h-9.28l4.64-14.26z" fill="#b2b2b2"/><path d="M266 558.5h-12l6-18.5zm-9.26-2h6.52L260 546.47z" fill="#b2b2b2"/><path d="M1380 540v40h-280v-21.76" stroke="#b2b2b2" stroke-width="2" fill="none"/><path fill="#b2b2b2"/><path d="M1104.64 557.5h-9.28l4.64-14.26z" fill="#b2b2b2"/><path d="M1106 558.5h-12l6-18.5zm-9.26-2h6.52l-3.26-10.03z" fill="#b2b2b2"/><path d="M1660 540v40h-560v-21.76" stroke="#b2b2b2" stroke-width="2" fill="none"/><path fill="#b2b2b2"/><path d="M1104.64 557.5h-9.28l4.64-14.26z" fill="#b2b2b2"/><path d="M1106 558.5h-12l6-18.5zm-9.26-2h6.52l-3.26-10.03z" fill="#b2b2b2"/><path d="M1100 600v40H260v-21.76" stroke="#b2b2b2" stroke-width="2" fill="none"/><path d="M260 603.24l4.64 14.26h-9.28z" stroke="#b2b2b2" stroke-width="2" fill="#b2b2b2"/><path d="M840 560h240v60H840z" stroke="#000" stroke-opacity="0" stroke-width="2" fill="#fff" fill-opacity="0"/><g><use xlink:href="#u" transform="matrix(1,0,0,1,845,565) translate(65.91999999999999 34.480000000000004)"/></g><defs><path d="M77-652h147v251h225v-251h148V0H449v-272H224V0H77v-652" id="v"/><path d="M278 12C125 12 36-90 36-248s89-260 242-260c152 0 241 102 241 260S430 12 278 12zm0-401c-69 0-91 65-91 141s22 141 91 141c68 0 91-66 91-141s-23-141-91-141" id="w"/><path d="M24-496h146c26 123 54 244 70 377h4c21-133 55-252 84-377h127c30 125 62 247 87 377h4c18-131 45-253 70-377h136L633 0H461c-25-114-53-223-72-343h-4c-18 121-44 230-69 343H148" id="x"/><g id="a"><use transform="matrix(0.02666666666666667,0,0,0.02666666666666667,0,0)" xlink:href="#v"/><use transform="matrix(0.02666666666666667,0,0,0.02666666666666667,17.973333333333333,0)" xlink:href="#w"/><use transform="matrix(0.02666666666666667,0,0,0.02666666666666667,32.56,0)" xlink:href="#x"/></g><path d="M357-289c-1-62-8-94-61-94-25 0-53 16-84 48V0H65v-496h120l10 64h4c39-36 78-76 150-76 74 0 112 32 137 83 41-39 81-83 156-83 113 0 155 84 155 200V0H650v-289c-1-62-8-94-61-94-25 0-53 16-85 48V0H357v-289" id="y"/><path d="M194 12C101 12 47-46 47-138c0-52 22-93 66-122s115-49 213-59c-4-46-26-73-78-72-55 1-91 22-132 45l-52-97c59-34 124-65 212-65 136 0 197 79 197 224V0H353l-11-51h-3c-38 32-80 63-145 63zm50-114c42-3 57-20 82-42v-87c-53 7-88 20-109 32-47 27-37 102 27 97" id="z"/><path d="M304-383c-47 0-63 23-92 48V0H65v-496h120l10 63h4c41-35 85-76 159-75 115 0 153 83 154 200V0H365v-289c-1-62-8-94-61-94" id="A"/><path d="M76 72c72 22 120-23 127-85L12-496h148c38 117 80 229 110 354h4c27-123 62-237 94-354h141L337 5C300 124 217 227 50 184" id="B"/><g id="b"><use transform="matrix(0.02666666666666667,0,0,0.02666666666666667,0,0)" xlink:href="#y"/><use transform="matrix(0.02666666666666667,0,0,0.02666666666666667,22.853333333333335,0)" xlink:href="#z"/><use transform="matrix(0.02666666666666667,0,0,0.02666666666666667,37.093333333333334,0)" xlink:href="#A"/><use transform="matrix(0.02666666666666667,0,0,0.02666666666666667,52.346666666666664,0)" xlink:href="#B"/></g><path d="M12-496h148c35 129 71 255 103 387h4c30-134 68-259 103-387h141L349 0H179" id="C"/><path d="M375-371c-80-25-141 14-163 83V0H65v-496h120l10 87h4c33-69 107-120 200-89" id="D"/><path d="M223-646c0 46-37 77-85 77-47 0-85-31-85-77s38-76 85-76c48 0 85 30 85 76zM65-496h147V0H65v-496" id="E"/><path d="M325 12c-57 0-98-29-129-64h-4L180 0H65v-701h147c-1 83 2 170-4 248 33-29 75-55 131-55 138 0 195 108 195 251 0 151-68 269-209 269zm-34-120c66 0 92-62 92-146 0-143-101-170-171-89v203c22 20 44 32 79 32" id="F"/><path d="M200 12C99 12 65-53 65-154v-547h147v553c-2 31 16 47 44 39L274 0c-19 8-45 12-74 12" id="G"/><path d="M287 12C128 12 36-86 36-248c0-153 86-255 234-260 163-6 229 133 205 300H178c9 112 149 136 236 75l49 89c-44 30-107 56-176 56zm69-311c-1-57-23-99-83-97-56 2-88 40-96 97h179" id="H"/><path d="M415-148C416-3 245 40 110-7 76-20 46-36 21-57l66-92c39 28 72 46 128 52 64 7 83-58 31-81-84-38-196-56-200-175-4-140 166-184 290-135 29 12 54 27 75 43l-66 88c-30-22-61-38-105-42-63-5-71 55-26 75 86 37 200 53 201 176" id="I"/><path d="M421-511c0 133-141 144-138 280H154c-13-117 72-161 116-233 28-46-2-102-57-99-43 2-67 23-91 46l-81-74c41-48 99-91 182-91 119 0 198 52 198 171zM218 12c-50 0-88-42-88-92 0-51 38-93 88-93s89 42 89 93c0 50-39 92-89 92" id="J"/><g id="c"><use transform="matrix(0.02666666666666667,0,0,0.02666666666666667,0,0)" xlink:href="#C"/><use transform="matrix(0.02666666666666667,0,0,0.02666666666666667,13.413333333333334,0)" xlink:href="#z"/><use transform="matrix(0.02666666666666667,0,0,0.02666666666666667,27.653333333333336,0)" xlink:href="#D"/><use transform="matrix(0.02666666666666667,0,0,0.02666666666666667,38.266666666666666,0)" xlink:href="#E"/><use transform="matrix(0.02666666666666667,0,0,0.02666666666666667,45.626666666666665,0)" xlink:href="#z"/><use transform="matrix(0.02666666666666667,0,0,0.02666666666666667,59.86666666666667,0)" xlink:href="#F"/><use transform="matrix(0.02666666666666667,0,0,0.02666666666666667,75.14666666666668,0)" xlink:href="#G"/><use transform="matrix(0.02666666666666667,0,0,0.02666666666666667,82.77333333333334,0)" xlink:href="#H"/><use transform="matrix(0.02666666666666667,0,0,0.02666666666666667,96.58666666666667,0)" xlink:href="#I"/><use transform="matrix(0.02666666666666667,0,0,0.02666666666666667,107.73333333333333,0)" xlink:href="#J"/></g><path d="M90-495C69-672 208-751 372-695l-27 108c-56-23-114-8-108 61v30h89v115h-89V0H90v-381H24v-109" id="K"/><path d="M281 12C124 12 36-88 36-248c0-163 99-254 258-260 63-3 113 24 145 57l-67 91c-82-73-185 1-185 112 0 77 41 140 111 141 38 0 66-19 89-36l59 93c-39 37-98 62-165 62" id="L"/><path d="M256 12C136 11 86-60 85-180v-201H17v-109l76-6 17-132h122v132h119v115H232v199c-8 71 56 94 111 69L366-6c-31 9-67 19-110 18" id="M"/><g id="d"><use transform="matrix(0.02666666666666667,0,0,0.02666666666666667,0,0)" xlink:href="#K"/><use transform="matrix(0.02666666666666667,0,0,0.02666666666666667,8.56,0)" xlink:href="#z"/><use transform="matrix(0.02666666666666667,0,0,0.02666666666666667,22.8,0)" xlink:href="#L"/><use transform="matrix(0.02666666666666667,0,0,0.02666666666666667,35.25333333333334,0)" xlink:href="#M"/><use transform="matrix(0.02666666666666667,0,0,0.02666666666666667,45.2,0)" xlink:href="#w"/><use transform="matrix(0.02666666666666667,0,0,0.02666666666666667,60.00000000000001,0)" xlink:href="#D"/><use transform="matrix(0.02666666666666667,0,0,0.02666666666666667,70.34666666666666,0)" xlink:href="#I"/><use transform="matrix(0.02666666666666667,0,0,0.02666666666666667,81.49333333333333,0)" xlink:href="#J"/></g><path d="M226-586H28v-70h480v70H310V0h-84v-586" id="N"/><path d="M41-282h230v63H41v-63" id="O"/><path d="M235 12C135 12 96-49 96-150v-269H24v-62l76-5 10-136h69v136h131v67H179v270c1 58 17 94 75 94 19 0 41-7 55-13l16 62c-25 8-58 18-90 18" id="P"/><path d="M279 12C129 6 46-87 46-242c0-148 77-256 218-256 148 0 205 117 191 273H127c4 97 64 171 162 171 51 0 87-18 121-38l29 54c-42 25-92 53-160 50zm107-291c7-109-70-183-170-143-53 21-83 73-90 143h260" id="Q"/><path d="M374-191C441-40 261 57 110-7 79-20 51-36 28-55l41-55c40 31 77 52 143 58 87 8 128-92 60-134-81-50-214-50-220-174-7-157 230-170 318-83l-39 52c-30-22-63-38-111-43-80-8-120 85-56 122 69 40 177 47 210 121" id="R"/><g id="e"><use transform="matrix(0.02666666666666667,0,0,0.02666666666666667,0,0)" xlink:href="#N"/><use transform="matrix(0.02666666666666667,0,0,0.02666666666666667,12.160000000000002,0)" xlink:href="#O"/><use transform="matrix(0.02666666666666667,0,0,0.02666666666666667,20.453333333333333,0)" xlink:href="#P"/><use transform="matrix(0.02666666666666667,0,0,0.02666666666666667,29.200000000000003,0)" xlink:href="#Q"/><use transform="matrix(0.02666666666666667,0,0,0.02666666666666667,42.42666666666667,0)" xlink:href="#R"/><use transform="matrix(0.02666666666666667,0,0,0.02666666666666667,53.6,0)" xlink:href="#P"/></g><path d="M109-591c55-10 96-24 135-47h63v570h132V0H79v-68h146v-470H109v-53" id="S"/><path d="M24-486h84c34 138 73 272 101 416h4c33-142 72-278 108-416h80c37 138 76 275 110 416h4c30-142 67-278 101-416h78L564 0H464c-35-133-73-263-103-401h-4C327-263 289-134 255 0h-96" id="T"/><path d="M201 12C118 12 58-40 58-126c0-53 24-94 72-122s123-49 227-60c-1-72-27-121-100-122-60-1-108 28-145 52l-33-57c46-28 114-63 191-63 121 0 168 82 169 200V0h-68c-4-19-2-42-9-58-42 33-92 70-161 70zm23-66c62-5 93-31 133-65v-135c-89 14-171 22-207 80-36 57 6 125 74 120" id="U"/><path d="M49 134c97 31 140-55 158-133L12-486h85c49 135 100 267 146 406h4c40-138 84-271 128-406h80L272 40c-31 99-101 199-239 159" id="V"/><g id="f"><use transform="matrix(0.02666666666666667,0,0,0.02666666666666667,0,0)" xlink:href="#S"/><use transform="matrix(0.02666666666666667,0,0,0.02666666666666667,13.253333333333334,0)" xlink:href="#O"/><use transform="matrix(0.02666666666666667,0,0,0.02666666666666667,21.546666666666667,0)" xlink:href="#T"/><use transform="matrix(0.02666666666666667,0,0,0.02666666666666667,40.42666666666667,0)" xlink:href="#U"/><use transform="matrix(0.02666666666666667,0,0,0.02666666666666667,54.080000000000005,0)" xlink:href="#V"/></g><path d="M369-267c-33-107-67-211-97-321h-4c-28 111-63 214-96 321h197zm21 67H151L88 0H3l222-656h94L541 0h-89" id="W"/><path d="M158-548c17 169 9 363 11 548H90v-656h86c103 183 212 359 308 548h4c-15-171-9-363-10-548h79V0h-86C368-183 259-359 162-548h-4" id="X"/><path d="M613-331c0 199-89 343-281 343C139 12 52-132 52-331c0-198 88-337 280-337 191 0 281 139 281 337zm-475 0c0 148 53 270 194 270s194-122 194-270c0-147-54-264-194-264S138-478 138-331" id="Y"/><path d="M0-656h89c57 190 112 381 169 571h4c56-190 111-382 168-571h85L307 0h-97" id="Z"/><g id="g"><use transform="matrix(0.02666666666666667,0,0,0.02666666666666667,0,0)" xlink:href="#W"/><use transform="matrix(0.02666666666666667,0,0,0.02666666666666667,14.506666666666668,0)" xlink:href="#X"/><use transform="matrix(0.02666666666666667,0,0,0.02666666666666667,31.76,0)" xlink:href="#Y"/><use transform="matrix(0.02666666666666667,0,0,0.02666666666666667,49.2,0)" xlink:href="#Z"/><use transform="matrix(0.02666666666666667,0,0,0.02666666666666667,62.56,0)" xlink:href="#W"/></g><path d="M160-65c91-9 193-5 292-6V0H40v-49c105-109 211-198 280-329 48-90 10-210-101-205-62 3-103 42-136 77l-47-47c50-52 98-93 193-97 149-6 232 140 171 278-54 122-150 211-240 307" id="aa"/><g id="h"><use transform="matrix(0.02666666666666667,0,0,0.02666666666666667,0,0)" xlink:href="#aa"/><use transform="matrix(0.02666666666666667,0,0,0.02666666666666667,13.253333333333334,0)" xlink:href="#O"/><use transform="matrix(0.02666666666666667,0,0,0.02666666666666667,21.546666666666667,0)" xlink:href="#T"/><use transform="matrix(0.02666666666666667,0,0,0.02666666666666667,40.42666666666667,0)" xlink:href="#U"/><use transform="matrix(0.02666666666666667,0,0,0.02666666666666667,54.080000000000005,0)" xlink:href="#V"/><use transform="matrix(0.02666666666666667,0,0,0.02666666666666667,66.53333333333335,0)" xlink:href="#R"/></g><path d="M90-656h83v275h305v-275h84V0h-84v-309H173V0H90v-656" id="ab"/><path d="M271 12C125 12 46-91 46-242c0-152 79-256 225-256s225 104 225 256c0 151-79 254-225 254zm0-442c-100 0-140 84-140 188S172-56 271-56s140-82 140-186-40-188-140-188" id="ac"/><path d="M169 12c-67 0-86-42-87-110v-614h82v620c-2 29 15 42 41 34l11 62c-13 6-27 8-47 8" id="ad"/><path d="M181-639c0 30-26 53-57 53s-57-23-57-53c0-31 26-53 57-53s57 22 57 53zM82-486h82V0H82v-486" id="ae"/><path d="M297-427c-68 0-89 36-133 75V0H82v-486h68l7 70h3c43-40 85-82 163-82 111 0 147 74 148 190V0h-82v-297c-1-82-18-130-92-130" id="af"/><path d="M167 0c-28 21-50 43-50 82 0 62 68 87 141 85 79-2 154-27 154-99 0-98-160-40-245-68zm79 224C139 224 45 194 45 93c0-52 35-84 71-110v-4c-23-15-43-40-43-79 0-42 30-73 53-90v-4c-30-26-63-73-63-131 0-132 122-199 252-161h169v63H384c21 21 40 58 40 100 0 132-129 200-251 152-16 14-31 29-31 58-1 71 108 51 180 53 101 3 170 24 170 116 0 121-115 168-246 168zM143-325c2 69 37 116 103 116s101-47 103-116c2-66-42-112-103-113-61 0-105 47-103 113" id="ag"/><g id="i"><use transform="matrix(0.02666666666666667,0,0,0.02666666666666667,0,0)" xlink:href="#ab"/><use transform="matrix(0.02666666666666667,0,0,0.02666666666666667,17.386666666666667,0)" xlink:href="#ac"/><use transform="matrix(0.02666666666666667,0,0,0.02666666666666667,31.840000000000003,0)" xlink:href="#P"/><use transform="matrix(0.02666666666666667,0,0,0.02666666666666667,40.58666666666667,0)" xlink:href="#Q"/><use transform="matrix(0.02666666666666667,0,0,0.02666666666666667,53.81333333333334,0)" xlink:href="#ad"/><use transform="matrix(0.02666666666666667,0,0,0.02666666666666667,60.61333333333335,0)" xlink:href="#ad"/><use transform="matrix(0.02666666666666667,0,0,0.02666666666666667,67.41333333333334,0)" xlink:href="#ae"/><use transform="matrix(0.02666666666666667,0,0,0.02666666666666667,73.97333333333334,0)" xlink:href="#af"/><use transform="matrix(0.02666666666666667,0,0,0.02666666666666667,88.56000000000002,0)" xlink:href="#ag"/><use transform="matrix(0.02666666666666667,0,0,0.02666666666666667,102.00000000000001,0)" xlink:href="#O"/><use transform="matrix(0.02666666666666667,0,0,0.02666666666666667,110.29333333333334,0)" xlink:href="#R"/></g><g id="j"><use transform="matrix(0.02666666666666667,0,0,0.02666666666666667,0,0)" xlink:href="#N"/><use transform="matrix(0.02666666666666667,0,0,0.02666666666666667,14.293333333333335,0)" xlink:href="#aa"/></g><path d="M156-555c17 172 9 368 11 555H90v-656h98c58 162 117 324 175 486h4c55-164 115-324 172-486h98V0h-79c2-187-7-383 11-555h-4C506-391 446-229 386-66h-47c-60-163-121-324-179-489h-4" id="ah"/><g id="k"><use transform="matrix(0.02666666666666667,0,0,0.02666666666666667,0,0)" xlink:href="#ah"/><use transform="matrix(0.02666666666666667,0,0,0.02666666666666667,19.386666666666667,0)" xlink:href="#W"/><use transform="matrix(0.02666666666666667,0,0,0.02666666666666667,33.89333333333333,0)" xlink:href="#X"/><use transform="matrix(0.02666666666666667,0,0,0.02666666666666667,51.14666666666666,0)" xlink:href="#Y"/><use transform="matrix(0.02666666666666667,0,0,0.02666666666666667,68.58666666666666,0)" xlink:href="#Z"/><use transform="matrix(0.02666666666666667,0,0,0.02666666666666667,81.94666666666666,0)" xlink:href="#W"/></g><use transform="matrix(0.02666666666666667,0,0,0.02666666666666667,0,0)" xlink:href="#S" id="l"/><path d="M463-299L34-131v-71c115-43 230-85 345-128v-4c-115-43-230-85-345-128v-71l429 168v66" id="ai"/><use transform="matrix(0.02666666666666667,0,0,0.02666666666666667,0,0)" xlink:href="#ai" id="m"/><use transform="matrix(0.02666666666666667,0,0,0.02666666666666667,0,0)" xlink:href="#S" id="n"/><use transform="matrix(0.02666666666666667,0,0,0.02666666666666667,0,0)" xlink:href="#aa" id="o"/><use transform="matrix(0.02666666666666667,0,0,0.02666666666666667,0,0)" xlink:href="#S" id="p"/><path d="M297-427c-68 0-89 36-133 75V0H82v-712h82c0 99 1 199-3 294 44-38 85-80 162-80 111 0 147 74 148 190V0h-82v-297c-1-82-18-130-92-130" id="aj"/><g id="q"><use transform="matrix(0.02666666666666667,0,0,0.02666666666666667,0,0)" xlink:href="#T"/><use transform="matrix(0.02666666666666667,0,0,0.02666666666666667,19.14666666666667,0)" xlink:href="#ae"/><use transform="matrix(0.02666666666666667,0,0,0.02666666666666667,25.70666666666667,0)" xlink:href="#P"/><use transform="matrix(0.02666666666666667,0,0,0.02666666666666667,34.720000000000006,0)" xlink:href="#aj"/></g><use transform="matrix(0.02666666666666667,0,0,0.02666666666666667,0,0)" xlink:href="#ai" id="r"/><use transform="matrix(0.02666666666666667,0,0,0.02666666666666667,0,0)" xlink:href="#aa" id="s"/><path d="M12-486h85c46 139 93 277 137 419h4c42-142 90-280 136-419h81L283 0h-96" id="ak"/><g id="t"><use transform="matrix(0.02666666666666667,0,0,0.02666666666666667,0,0)" xlink:href="#ad"/><use transform="matrix(0.02666666666666667,0,0,0.02666666666666667,6.800000000000001,0)" xlink:href="#Q"/><use transform="matrix(0.02666666666666667,0,0,0.02666666666666667,20.160000000000004,0)" xlink:href="#ak"/><use transform="matrix(0.02666666666666667,0,0,0.02666666666666667,32.506666666666675,0)" xlink:href="#Q"/><use transform="matrix(0.02666666666666667,0,0,0.02666666666666667,45.73333333333334,0)" xlink:href="#ad"/><use transform="matrix(0.02666666666666667,0,0,0.02666666666666667,52.533333333333346,0)" xlink:href="#R"/></g><path fill="#999" d="M297 12c-57 0-97-28-135-56 3 81 2 165 2 249H82v-691h68l7 56h3c39-32 90-68 155-68 140 0 192 106 192 248 0 150-68 262-210 262zm-3-441c-58 0-90 33-130 66v255c34 29 69 51 119 51 100 0 139-86 139-193 0-101-29-179-128-179" id="al"/><path fill="#999" d="M271 12C125 12 46-91 46-242c0-152 79-256 225-256s225 104 225 256c0 151-79 254-225 254zm0-442c-100 0-140 84-140 188S172-56 271-56s140-82 140-186-40-188-140-188" id="am"/><path fill="#999" d="M374-191C441-40 261 57 110-7 79-20 51-36 28-55l41-55c40 31 77 52 143 58 87 8 128-92 60-134-81-50-214-50-220-174-7-157 230-170 318-83l-39 52c-30-22-63-38-111-43-80-8-120 85-56 122 69 40 177 47 210 121" id="an"/><path fill="#999" d="M235 12C135 12 96-49 96-150v-269H24v-62l76-5 10-136h69v136h131v67H179v270c1 58 17 94 75 94 19 0 41-7 55-13l16 62c-25 8-58 18-90 18" id="ao"/><path fill="#999" d="M41-282h230v63H41v-63" id="ap"/><path fill="#999" d="M297-427c-68 0-89 36-133 75V0H82v-712h82c0 99 1 199-3 294 44-38 85-80 162-80 111 0 147 74 148 190V0h-82v-297c-1-82-18-130-92-130" id="aq"/><path fill="#999" d="M274 12C124 12 46-89 46-242c0-154 84-249 234-256 64-3 108 29 142 58l-41 53c-27-22-53-43-98-43-104 0-152 81-152 188S178-60 281-56c50 2 87-25 114-49l37 54c-39 34-91 63-158 63" id="ar"/><g id="u"><use transform="matrix(0.02666666666666667,0,0,0.02666666666666667,0,0)" xlink:href="#al"/><use transform="matrix(0.02666666666666667,0,0,0.02666666666666667,14.8,0)" xlink:href="#am"/><use transform="matrix(0.02666666666666667,0,0,0.02666666666666667,29.253333333333334,0)" xlink:href="#an"/><use transform="matrix(0.02666666666666667,0,0,0.02666666666666667,40.42666666666667,0)" xlink:href="#ao"/><use transform="matrix(0.02666666666666667,0,0,0.02666666666666667,48.74666666666667,0)" xlink:href="#ap"/><use transform="matrix(0.02666666666666667,0,0,0.02666666666666667,57.040000000000006,0)" xlink:href="#aq"/><use transform="matrix(0.02666666666666667,0,0,0.02666666666666667,71.54666666666668,0)" xlink:href="#am"/><use transform="matrix(0.02666666666666667,0,0,0.02666666666666667,86.00000000000001,0)" xlink:href="#ar"/></g></defs></g></svg>