<?xml version="1.0" encoding="UTF-8" standalone="no"?>
<svg
   xmlns:dc="http://purl.org/dc/elements/1.1/"
   xmlns:cc="http://creativecommons.org/ns#"
   xmlns:rdf="http://www.w3.org/1999/02/22-rdf-syntax-ns#"
   xmlns:svg="http://www.w3.org/2000/svg"
   xmlns="http://www.w3.org/2000/svg"
   xmlns:sodipodi="http://sodipodi.sourceforge.net/DTD/sodipodi-0.dtd"
   xmlns:inkscape="http://www.inkscape.org/namespaces/inkscape"
   width="705.69983"
   height="384.78897"
   viewBox="0 0 705.69983 384.78897"
   version="1.1"
   xml:space="preserve"
   style="clip-rule:evenodd;fill-rule:evenodd;stroke-linecap:round;stroke-linejoin:round;stroke-miterlimit:1.5"
   id="svg238"
   sodipodi:docname="manova_2.svg"
   inkscape:version="0.92.3 (2405546, 2018-03-11)"><metadata
   id="metadata244"><rdf:RDF><cc:Work
       rdf:about=""><dc:format>image/svg+xml</dc:format><dc:type
         rdf:resource="http://purl.org/dc/dcmitype/StillImage" /><dc:title></dc:title></cc:Work></rdf:RDF></metadata><defs
   id="defs242" /><sodipodi:namedview
   pagecolor="#ffffff"
   bordercolor="#666666"
   borderopacity="1"
   objecttolerance="10"
   gridtolerance="10"
   guidetolerance="10"
   inkscape:pageopacity="0"
   inkscape:pageshadow="2"
   inkscape:window-width="1920"
   inkscape:window-height="984"
   id="namedview240"
   showgrid="false"
   fit-margin-top="10"
   fit-margin-right="10"
   fit-margin-bottom="10"
   fit-margin-left="10"
   inkscape:zoom="0.2671875"
   inkscape:cx="352.8498"
   inkscape:cy="151.78896"
   inkscape:window-x="1920"
   inkscape:window-y="27"
   inkscape:window-maximized="1"
   inkscape:current-layer="svg238" />
    <g
   transform="translate(-98.0002,-562.711)"
   id="g112">
        <g
   transform="translate(-407.697,293)"
   id="g4">
            <path
   d="M 556,407.75 692.399,329 828.798,407.75 692.399,486.5 556,407.75"
   style="fill:#3b7bb5;stroke:#000000;stroke-width:1px"
   id="path2"
   inkscape:connector-curvature="0" />
        </g>
        <g
   transform="translate(-407.697,293)"
   id="g8">
            <path
   d="M 556,407.75 692.399,486.5 V 644 L 556,565.25 Z"
   style="fill:#649aca;stroke:#000000;stroke-width:1px"
   id="path6"
   inkscape:connector-curvature="0" />
        </g>
        <g
   transform="translate(-407.697,293)"
   id="g12">
            <path
   d="M 692.399,644 828.798,565.25 V 407.75 L 692.399,486.5 Z"
   style="fill:#024c8d;stroke:#000000;stroke-width:1px"
   id="path10"
   inkscape:connector-curvature="0" />
        </g>
        <g
   transform="matrix(0.716749,0.413815,-0.5,0.866025,294.522,124.94)"
   id="g16">
            <path
   d="M 172,566.825 V 573 563.5 554 560.175 H 340.043 V 554 L 363,563.5 340.043,573 v -6.175 z"
   style="fill:#bfbfbf"
   id="path14"
   inkscape:connector-curvature="0" />
        </g>
        <g
   transform="matrix(0.716749,-0.413815,0.5,0.866025,-268.978,267.437)"
   id="g20">
            <path
   d="M 172,566.825 V 573 563.5 554 560.175 H 340.043 V 554 L 363,563.5 340.043,573 v -6.175 z"
   style="fill:#bfbfbf"
   id="path18"
   inkscape:connector-curvature="0" />
        </g>
        <g
   transform="matrix(0,0.912506,-1,0,699.303,527.292)"
   id="g24">
            <path
   d="M 172,566.825 V 573 563.5 554 560.175 H 342.178 V 554 L 363,563.5 342.178,573 v -6.175 z"
   style="fill:#bfbfbf"
   id="path22"
   inkscape:connector-curvature="0" />
        </g>
        <g
   transform="translate(-385.697,423.993)"
   id="g28">
            <path
   d="m 520.088,257.393 1.662,2.88 -3.575,-0.023 z"
   style="fill:#bfbfbf"
   id="path26"
   inkscape:connector-curvature="0" />
        </g>
        <g
   transform="rotate(-30.000012,1152.9103,1120.8123)"
   id="g48">
            <path
   d="m 528.847,223.445 -4.2,-11.664 h 2.04 l 2.208,6.624 c 0.176,0.576 0.356,1.152 0.54,1.728 0.184,0.576 0.364,1.144 0.54,1.704 h 0.096 c 0.176,-0.56 0.352,-1.128 0.528,-1.704 0.176,-0.576 0.352,-1.152 0.528,-1.728 l 2.208,-6.624 h 1.944 l -4.128,11.664 z"
   style="fill:#bfbfbf;fill-rule:nonzero"
   id="path30"
   inkscape:connector-curvature="0" />
            <path
   d="m 539.743,223.733 c -0.976,0 -1.788,-0.288 -2.436,-0.864 -0.648,-0.576 -0.972,-1.392 -0.972,-2.448 0,-1.28 0.568,-2.26 1.704,-2.94 1.136,-0.68 2.952,-1.156 5.448,-1.428 0,-0.368 -0.036,-0.728 -0.108,-1.08 -0.072,-0.352 -0.196,-0.664 -0.372,-0.936 -0.176,-0.272 -0.42,-0.492 -0.732,-0.66 -0.312,-0.168 -0.708,-0.252 -1.188,-0.252 -0.672,0 -1.304,0.128 -1.896,0.384 -0.592,0.256 -1.12,0.544 -1.584,0.864 l -0.768,-1.368 c 0.544,-0.352 1.208,-0.692 1.992,-1.02 0.784,-0.328 1.648,-0.492 2.592,-0.492 1.424,0 2.456,0.436 3.096,1.308 0.64,0.872 0.96,2.036 0.96,3.492 v 7.152 h -1.632 l -0.168,-1.392 h -0.072 c -0.56,0.464 -1.16,0.86 -1.8,1.188 -0.64,0.328 -1.328,0.492 -2.064,0.492 z m 0.576,-1.584 c 0.56,0 1.088,-0.132 1.584,-0.396 0.496,-0.264 1.024,-0.652 1.584,-1.164 v -3.24 c -0.976,0.128 -1.796,0.28 -2.46,0.456 -0.664,0.176 -1.2,0.384 -1.608,0.624 -0.408,0.24 -0.704,0.516 -0.888,0.828 -0.184,0.312 -0.276,0.652 -0.276,1.02 0,0.672 0.2,1.152 0.6,1.44 0.4,0.288 0.888,0.432 1.464,0.432 z"
   style="fill:#bfbfbf;fill-rule:nonzero"
   id="path32"
   inkscape:connector-curvature="0" />
            <path
   d="m 549.151,223.445 v -11.664 h 1.632 l 0.168,2.112 h 0.072 c 0.4,-0.736 0.884,-1.32 1.452,-1.752 0.568,-0.432 1.188,-0.648 1.86,-0.648 0.464,0 0.88,0.08 1.248,0.24 l -0.384,1.728 c -0.192,-0.064 -0.368,-0.112 -0.528,-0.144 -0.16,-0.032 -0.36,-0.048 -0.6,-0.048 -0.496,0 -1.012,0.2 -1.548,0.6 -0.536,0.4 -1.004,1.096 -1.404,2.088 v 7.488 z"
   style="fill:#bfbfbf;fill-rule:nonzero"
   id="path34"
   inkscape:connector-curvature="0" />
            <path
   d="m 557.479,223.445 v -11.664 h 1.968 v 11.664 z m 1.008,-14.064 c -0.384,0 -0.708,-0.12 -0.972,-0.36 -0.264,-0.24 -0.396,-0.544 -0.396,-0.912 0,-0.384 0.132,-0.692 0.396,-0.924 0.264,-0.232 0.588,-0.348 0.972,-0.348 0.384,0 0.708,0.116 0.972,0.348 0.264,0.232 0.396,0.54 0.396,0.924 0,0.368 -0.132,0.672 -0.396,0.912 -0.264,0.24 -0.588,0.36 -0.972,0.36 z"
   style="fill:#bfbfbf;fill-rule:nonzero"
   id="path36"
   inkscape:connector-curvature="0" />
            <path
   d="m 566.071,223.733 c -0.976,0 -1.788,-0.288 -2.436,-0.864 -0.648,-0.576 -0.972,-1.392 -0.972,-2.448 0,-1.28 0.568,-2.26 1.704,-2.94 1.136,-0.68 2.952,-1.156 5.448,-1.428 0,-0.368 -0.036,-0.728 -0.108,-1.08 -0.072,-0.352 -0.196,-0.664 -0.372,-0.936 -0.176,-0.272 -0.42,-0.492 -0.732,-0.66 -0.312,-0.168 -0.708,-0.252 -1.188,-0.252 -0.672,0 -1.304,0.128 -1.896,0.384 -0.592,0.256 -1.12,0.544 -1.584,0.864 l -0.768,-1.368 c 0.544,-0.352 1.208,-0.692 1.992,-1.02 0.784,-0.328 1.648,-0.492 2.592,-0.492 1.424,0 2.456,0.436 3.096,1.308 0.64,0.872 0.96,2.036 0.96,3.492 v 7.152 h -1.632 l -0.168,-1.392 h -0.072 c -0.56,0.464 -1.16,0.86 -1.8,1.188 -0.64,0.328 -1.328,0.492 -2.064,0.492 z m 0.576,-1.584 c 0.56,0 1.088,-0.132 1.584,-0.396 0.496,-0.264 1.024,-0.652 1.584,-1.164 v -3.24 c -0.976,0.128 -1.796,0.28 -2.46,0.456 -0.664,0.176 -1.2,0.384 -1.608,0.624 -0.408,0.24 -0.704,0.516 -0.888,0.828 -0.184,0.312 -0.276,0.652 -0.276,1.02 0,0.672 0.2,1.152 0.6,1.44 0.4,0.288 0.888,0.432 1.464,0.432 z"
   style="fill:#bfbfbf;fill-rule:nonzero"
   id="path38"
   inkscape:connector-curvature="0" />
            <path
   d="m 580.639,223.733 c -0.544,0 -1.108,-0.132 -1.692,-0.396 -0.584,-0.264 -1.132,-0.628 -1.644,-1.092 h -0.072 l -0.168,1.2 h -1.584 v -17.088 h 1.968 v 4.656 l -0.048,2.112 c 0.528,-0.464 1.104,-0.852 1.728,-1.164 0.624,-0.312 1.264,-0.468 1.92,-0.468 0.752,0 1.416,0.14 1.992,0.42 0.576,0.28 1.06,0.68 1.452,1.2 0.392,0.52 0.688,1.144 0.888,1.872 0.2,0.728 0.3,1.54 0.3,2.436 0,0.992 -0.136,1.88 -0.408,2.664 -0.272,0.784 -0.64,1.448 -1.104,1.992 -0.464,0.544 -1,0.956 -1.608,1.236 -0.608,0.28 -1.248,0.42 -1.92,0.42 z m -0.336,-1.656 c 0.48,0 0.924,-0.108 1.332,-0.324 0.408,-0.216 0.76,-0.52 1.056,-0.912 0.296,-0.392 0.528,-0.876 0.696,-1.452 0.168,-0.576 0.252,-1.224 0.252,-1.944 0,-0.64 -0.056,-1.224 -0.168,-1.752 -0.112,-0.528 -0.292,-0.98 -0.54,-1.356 -0.248,-0.376 -0.568,-0.668 -0.96,-0.876 -0.392,-0.208 -0.86,-0.312 -1.404,-0.312 -0.944,0 -1.984,0.528 -3.12,1.584 v 6.12 c 0.512,0.448 1.02,0.764 1.524,0.948 0.504,0.184 0.948,0.276 1.332,0.276 z"
   style="fill:#bfbfbf;fill-rule:nonzero"
   id="path40"
   inkscape:connector-curvature="0" />
            <path
   d="m 590.839,223.733 c -0.752,0 -1.288,-0.224 -1.608,-0.672 -0.32,-0.448 -0.48,-1.104 -0.48,-1.968 v -14.736 h 1.968 v 14.88 c 0,0.32 0.056,0.544 0.168,0.672 0.112,0.128 0.24,0.192 0.384,0.192 0.064,0 0.124,0 0.18,0 0.056,0 0.14,-0.016 0.252,-0.048 l 0.264,1.488 c -0.128,0.064 -0.28,0.112 -0.456,0.144 -0.176,0.032 -0.4,0.048 -0.672,0.048 z"
   style="fill:#bfbfbf;fill-rule:nonzero"
   id="path42"
   inkscape:connector-curvature="0" />
            <path
   d="m 599.599,223.733 c -0.784,0 -1.516,-0.14 -2.196,-0.42 -0.68,-0.28 -1.272,-0.68 -1.776,-1.2 -0.504,-0.52 -0.9,-1.156 -1.188,-1.908 -0.288,-0.752 -0.432,-1.608 -0.432,-2.568 0,-0.96 0.148,-1.82 0.444,-2.58 0.296,-0.76 0.688,-1.404 1.176,-1.932 0.488,-0.528 1.044,-0.932 1.668,-1.212 0.624,-0.28 1.272,-0.42 1.944,-0.42 0.736,0 1.396,0.128 1.98,0.384 0.584,0.256 1.072,0.624 1.464,1.104 0.392,0.48 0.692,1.056 0.9,1.728 0.208,0.672 0.312,1.424 0.312,2.256 0,0.208 -0.004,0.412 -0.012,0.612 -0.008,0.2 -0.028,0.372 -0.06,0.516 h -7.872 c 0.08,1.248 0.468,2.236 1.164,2.964 0.696,0.728 1.604,1.092 2.724,1.092 0.56,0 1.076,-0.084 1.548,-0.252 0.472,-0.168 0.924,-0.388 1.356,-0.66 l 0.696,1.296 c -0.512,0.32 -1.08,0.6 -1.704,0.84 -0.624,0.24 -1.336,0.36 -2.136,0.36 z m -3.672,-7.056 h 6.24 c 0,-1.184 -0.252,-2.084 -0.756,-2.7 -0.504,-0.616 -1.212,-0.924 -2.124,-0.924 -0.416,0 -0.812,0.08 -1.188,0.24 -0.376,0.16 -0.716,0.396 -1.02,0.708 -0.304,0.312 -0.556,0.692 -0.756,1.14 -0.2,0.448 -0.332,0.96 -0.396,1.536 z"
   style="fill:#bfbfbf;fill-rule:nonzero"
   id="path44"
   inkscape:connector-curvature="0" />
            <path
   d="m 609.823,223.733 c -0.832,0 -1.624,-0.152 -2.376,-0.456 -0.752,-0.304 -1.408,-0.688 -1.968,-1.152 l 0.984,-1.32 c 0.512,0.416 1.036,0.752 1.572,1.008 0.536,0.256 1.156,0.384 1.86,0.384 0.768,0 1.344,-0.176 1.728,-0.528 0.384,-0.352 0.576,-0.784 0.576,-1.296 0,-0.304 -0.08,-0.568 -0.24,-0.792 -0.16,-0.224 -0.364,-0.42 -0.612,-0.588 -0.248,-0.168 -0.532,-0.316 -0.852,-0.444 -0.32,-0.128 -0.64,-0.256 -0.96,-0.384 -0.416,-0.144 -0.832,-0.308 -1.248,-0.492 -0.416,-0.184 -0.788,-0.408 -1.116,-0.672 -0.328,-0.264 -0.596,-0.572 -0.804,-0.924 -0.208,-0.352 -0.312,-0.776 -0.312,-1.272 0,-0.464 0.092,-0.9 0.276,-1.308 0.184,-0.408 0.448,-0.76 0.792,-1.056 0.344,-0.296 0.764,-0.528 1.26,-0.696 0.496,-0.168 1.056,-0.252 1.68,-0.252 0.736,0 1.412,0.128 2.028,0.384 0.616,0.256 1.148,0.568 1.596,0.936 l -0.936,1.248 c -0.4,-0.304 -0.816,-0.552 -1.248,-0.744 -0.432,-0.192 -0.904,-0.288 -1.416,-0.288 -0.736,0 -1.276,0.168 -1.62,0.504 -0.344,0.336 -0.516,0.728 -0.516,1.176 0,0.272 0.072,0.508 0.216,0.708 0.144,0.2 0.336,0.376 0.576,0.528 0.24,0.152 0.516,0.288 0.828,0.408 0.312,0.12 0.636,0.244 0.972,0.372 0.416,0.16 0.836,0.328 1.26,0.504 0.424,0.176 0.804,0.396 1.14,0.66 0.336,0.264 0.612,0.588 0.828,0.972 0.216,0.384 0.324,0.848 0.324,1.392 0,0.48 -0.092,0.928 -0.276,1.344 -0.184,0.416 -0.456,0.784 -0.816,1.104 -0.36,0.32 -0.808,0.572 -1.344,0.756 -0.536,0.184 -1.148,0.276 -1.836,0.276 z"
   style="fill:#bfbfbf;fill-rule:nonzero"
   id="path46"
   inkscape:connector-curvature="0" />
        </g>
        <g
   transform="rotate(30.000012,-531.33522,-181.78473)"
   id="g62">
            <path
   d="m 526.663,223.445 v -10.056 h -1.584 v -1.488 l 1.584,-0.12 v -1.848 c 0,-1.2 0.276,-2.144 0.828,-2.832 0.552,-0.688 1.412,-1.032 2.58,-1.032 0.368,0 0.716,0.036 1.044,0.108 0.328,0.072 0.628,0.164 0.9,0.276 l -0.432,1.512 c -0.432,-0.192 -0.872,-0.288 -1.32,-0.288 -1.088,0 -1.632,0.752 -1.632,2.256 v 1.848 h 2.472 v 1.608 h -2.472 v 10.056 z"
   style="fill:#bfbfbf;fill-rule:nonzero"
   id="path50"
   inkscape:connector-curvature="0" />
            <path
   d="m 533.335,223.445 v -11.664 h 1.632 l 0.168,2.112 h 0.072 c 0.4,-0.736 0.884,-1.32 1.452,-1.752 0.568,-0.432 1.188,-0.648 1.86,-0.648 0.464,0 0.88,0.08 1.248,0.24 l -0.384,1.728 c -0.192,-0.064 -0.368,-0.112 -0.528,-0.144 -0.16,-0.032 -0.36,-0.048 -0.6,-0.048 -0.496,0 -1.012,0.2 -1.548,0.6 -0.536,0.4 -1.004,1.096 -1.404,2.088 v 7.488 z"
   style="fill:#bfbfbf;fill-rule:nonzero"
   id="path52"
   inkscape:connector-curvature="0" />
            <path
   d="m 543.775,223.733 c -0.976,0 -1.788,-0.288 -2.436,-0.864 -0.648,-0.576 -0.972,-1.392 -0.972,-2.448 0,-1.28 0.568,-2.26 1.704,-2.94 1.136,-0.68 2.952,-1.156 5.448,-1.428 0,-0.368 -0.036,-0.728 -0.108,-1.08 -0.072,-0.352 -0.196,-0.664 -0.372,-0.936 -0.176,-0.272 -0.42,-0.492 -0.732,-0.66 -0.312,-0.168 -0.708,-0.252 -1.188,-0.252 -0.672,0 -1.304,0.128 -1.896,0.384 -0.592,0.256 -1.12,0.544 -1.584,0.864 l -0.768,-1.368 c 0.544,-0.352 1.208,-0.692 1.992,-1.02 0.784,-0.328 1.648,-0.492 2.592,-0.492 1.424,0 2.456,0.436 3.096,1.308 0.64,0.872 0.96,2.036 0.96,3.492 v 7.152 h -1.632 l -0.168,-1.392 h -0.072 c -0.56,0.464 -1.16,0.86 -1.8,1.188 -0.64,0.328 -1.328,0.492 -2.064,0.492 z m 0.576,-1.584 c 0.56,0 1.088,-0.132 1.584,-0.396 0.496,-0.264 1.024,-0.652 1.584,-1.164 v -3.24 c -0.976,0.128 -1.796,0.28 -2.46,0.456 -0.664,0.176 -1.2,0.384 -1.608,0.624 -0.408,0.24 -0.704,0.516 -0.888,0.828 -0.184,0.312 -0.276,0.652 -0.276,1.02 0,0.672 0.2,1.152 0.6,1.44 0.4,0.288 0.888,0.432 1.464,0.432 z"
   style="fill:#bfbfbf;fill-rule:nonzero"
   id="path54"
   inkscape:connector-curvature="0" />
            <path
   d="m 553.183,223.445 v -11.664 h 1.632 l 0.168,1.68 h 0.072 c 0.512,-0.56 1.068,-1.028 1.668,-1.404 0.6,-0.376 1.252,-0.564 1.956,-0.564 0.896,0 1.596,0.196 2.1,0.588 0.504,0.392 0.876,0.94 1.116,1.644 0.608,-0.672 1.22,-1.212 1.836,-1.62 0.616,-0.408 1.284,-0.612 2.004,-0.612 1.2,0 2.092,0.384 2.676,1.152 0.584,0.768 0.876,1.904 0.876,3.408 v 7.392 h -1.968 v -7.128 c 0,-1.104 -0.176,-1.9 -0.528,-2.388 -0.352,-0.488 -0.896,-0.732 -1.632,-0.732 -0.88,0 -1.856,0.6 -2.928,1.8 v 8.448 h -1.968 v -7.128 c 0,-1.104 -0.176,-1.9 -0.528,-2.388 -0.352,-0.488 -0.904,-0.732 -1.656,-0.732 -0.88,0 -1.856,0.6 -2.928,1.8 v 8.448 z"
   style="fill:#bfbfbf;fill-rule:nonzero"
   id="path56"
   inkscape:connector-curvature="0" />
            <path
   d="m 577.807,223.733 c -0.784,0 -1.516,-0.14 -2.196,-0.42 -0.68,-0.28 -1.272,-0.68 -1.776,-1.2 -0.504,-0.52 -0.9,-1.156 -1.188,-1.908 -0.288,-0.752 -0.432,-1.608 -0.432,-2.568 0,-0.96 0.148,-1.82 0.444,-2.58 0.296,-0.76 0.688,-1.404 1.176,-1.932 0.488,-0.528 1.044,-0.932 1.668,-1.212 0.624,-0.28 1.272,-0.42 1.944,-0.42 0.736,0 1.396,0.128 1.98,0.384 0.584,0.256 1.072,0.624 1.464,1.104 0.392,0.48 0.692,1.056 0.9,1.728 0.208,0.672 0.312,1.424 0.312,2.256 0,0.208 -0.004,0.412 -0.012,0.612 -0.008,0.2 -0.028,0.372 -0.06,0.516 h -7.872 c 0.08,1.248 0.468,2.236 1.164,2.964 0.696,0.728 1.604,1.092 2.724,1.092 0.56,0 1.076,-0.084 1.548,-0.252 0.472,-0.168 0.924,-0.388 1.356,-0.66 l 0.696,1.296 c -0.512,0.32 -1.08,0.6 -1.704,0.84 -0.624,0.24 -1.336,0.36 -2.136,0.36 z m -3.672,-7.056 h 6.24 c 0,-1.184 -0.252,-2.084 -0.756,-2.7 -0.504,-0.616 -1.212,-0.924 -2.124,-0.924 -0.416,0 -0.812,0.08 -1.188,0.24 -0.376,0.16 -0.716,0.396 -1.02,0.708 -0.304,0.312 -0.556,0.692 -0.756,1.14 -0.2,0.448 -0.332,0.96 -0.396,1.536 z"
   style="fill:#bfbfbf;fill-rule:nonzero"
   id="path58"
   inkscape:connector-curvature="0" />
            <path
   d="m 588.031,223.733 c -0.832,0 -1.624,-0.152 -2.376,-0.456 -0.752,-0.304 -1.408,-0.688 -1.968,-1.152 l 0.984,-1.32 c 0.512,0.416 1.036,0.752 1.572,1.008 0.536,0.256 1.156,0.384 1.86,0.384 0.768,0 1.344,-0.176 1.728,-0.528 0.384,-0.352 0.576,-0.784 0.576,-1.296 0,-0.304 -0.08,-0.568 -0.24,-0.792 -0.16,-0.224 -0.364,-0.42 -0.612,-0.588 -0.248,-0.168 -0.532,-0.316 -0.852,-0.444 -0.32,-0.128 -0.64,-0.256 -0.96,-0.384 -0.416,-0.144 -0.832,-0.308 -1.248,-0.492 -0.416,-0.184 -0.788,-0.408 -1.116,-0.672 -0.328,-0.264 -0.596,-0.572 -0.804,-0.924 -0.208,-0.352 -0.312,-0.776 -0.312,-1.272 0,-0.464 0.092,-0.9 0.276,-1.308 0.184,-0.408 0.448,-0.76 0.792,-1.056 0.344,-0.296 0.764,-0.528 1.26,-0.696 0.496,-0.168 1.056,-0.252 1.68,-0.252 0.736,0 1.412,0.128 2.028,0.384 0.616,0.256 1.148,0.568 1.596,0.936 l -0.936,1.248 c -0.4,-0.304 -0.816,-0.552 -1.248,-0.744 -0.432,-0.192 -0.904,-0.288 -1.416,-0.288 -0.736,0 -1.276,0.168 -1.62,0.504 -0.344,0.336 -0.516,0.728 -0.516,1.176 0,0.272 0.072,0.508 0.216,0.708 0.144,0.2 0.336,0.376 0.576,0.528 0.24,0.152 0.516,0.288 0.828,0.408 0.312,0.12 0.636,0.244 0.972,0.372 0.416,0.16 0.836,0.328 1.26,0.504 0.424,0.176 0.804,0.396 1.14,0.66 0.336,0.264 0.612,0.588 0.828,0.972 0.216,0.384 0.324,0.848 0.324,1.392 0,0.48 -0.092,0.928 -0.276,1.344 -0.184,0.416 -0.456,0.784 -0.816,1.104 -0.36,0.32 -0.808,0.572 -1.344,0.756 -0.536,0.184 -1.148,0.276 -1.836,0.276 z"
   style="fill:#bfbfbf;fill-rule:nonzero"
   id="path60"
   inkscape:connector-curvature="0" />
        </g>
        <g
   transform="rotate(-90,631.2466,729.6034)"
   id="g88">
            <path
   d="m 530.863,223.733 c -0.72,0 -1.404,-0.136 -2.052,-0.408 -0.648,-0.272 -1.22,-0.668 -1.716,-1.188 -0.496,-0.52 -0.892,-1.16 -1.188,-1.92 -0.296,-0.76 -0.444,-1.62 -0.444,-2.58 0,-0.976 0.148,-1.844 0.444,-2.604 0.296,-0.76 0.692,-1.404 1.188,-1.932 0.496,-0.528 1.068,-0.928 1.716,-1.2 0.648,-0.272 1.332,-0.408 2.052,-0.408 0.72,0 1.404,0.136 2.052,0.408 0.648,0.272 1.22,0.672 1.716,1.2 0.496,0.528 0.892,1.172 1.188,1.932 0.296,0.76 0.444,1.628 0.444,2.604 0,0.96 -0.148,1.82 -0.444,2.58 -0.296,0.76 -0.692,1.4 -1.188,1.92 -0.496,0.52 -1.068,0.916 -1.716,1.188 -0.648,0.272 -1.332,0.408 -2.052,0.408 z m 0,-1.632 c 0.496,0 0.952,-0.108 1.368,-0.324 0.416,-0.216 0.772,-0.52 1.068,-0.912 0.296,-0.392 0.524,-0.86 0.684,-1.404 0.16,-0.544 0.24,-1.152 0.24,-1.824 0,-0.672 -0.08,-1.284 -0.24,-1.836 -0.16,-0.552 -0.388,-1.028 -0.684,-1.428 -0.296,-0.4 -0.652,-0.708 -1.068,-0.924 -0.416,-0.216 -0.872,-0.324 -1.368,-0.324 -0.496,0 -0.952,0.108 -1.368,0.324 -0.416,0.216 -0.772,0.524 -1.068,0.924 -0.296,0.4 -0.524,0.876 -0.684,1.428 -0.16,0.552 -0.24,1.164 -0.24,1.836 0,0.672 0.08,1.28 0.24,1.824 0.16,0.544 0.388,1.012 0.684,1.404 0.296,0.392 0.652,0.696 1.068,0.912 0.416,0.216 0.872,0.324 1.368,0.324 z"
   style="fill:#bfbfbf;fill-rule:nonzero"
   id="path64"
   inkscape:connector-curvature="0" />
            <path
   d="m 544.495,223.733 c -0.544,0 -1.108,-0.132 -1.692,-0.396 -0.584,-0.264 -1.132,-0.628 -1.644,-1.092 h -0.072 l -0.168,1.2 h -1.584 v -17.088 h 1.968 v 4.656 l -0.048,2.112 c 0.528,-0.464 1.104,-0.852 1.728,-1.164 0.624,-0.312 1.264,-0.468 1.92,-0.468 0.752,0 1.416,0.14 1.992,0.42 0.576,0.28 1.06,0.68 1.452,1.2 0.392,0.52 0.688,1.144 0.888,1.872 0.2,0.728 0.3,1.54 0.3,2.436 0,0.992 -0.136,1.88 -0.408,2.664 -0.272,0.784 -0.64,1.448 -1.104,1.992 -0.464,0.544 -1,0.956 -1.608,1.236 -0.608,0.28 -1.248,0.42 -1.92,0.42 z m -0.336,-1.656 c 0.48,0 0.924,-0.108 1.332,-0.324 0.408,-0.216 0.76,-0.52 1.056,-0.912 0.296,-0.392 0.528,-0.876 0.696,-1.452 0.168,-0.576 0.252,-1.224 0.252,-1.944 0,-0.64 -0.056,-1.224 -0.168,-1.752 -0.112,-0.528 -0.292,-0.98 -0.54,-1.356 -0.248,-0.376 -0.568,-0.668 -0.96,-0.876 -0.392,-0.208 -0.86,-0.312 -1.404,-0.312 -0.944,0 -1.984,0.528 -3.12,1.584 v 6.12 c 0.512,0.448 1.02,0.764 1.524,0.948 0.504,0.184 0.948,0.276 1.332,0.276 z"
   style="fill:#bfbfbf;fill-rule:nonzero"
   id="path66"
   inkscape:connector-curvature="0" />
            <path
   d="m 555.655,223.733 c -0.832,0 -1.624,-0.152 -2.376,-0.456 -0.752,-0.304 -1.408,-0.688 -1.968,-1.152 l 0.984,-1.32 c 0.512,0.416 1.036,0.752 1.572,1.008 0.536,0.256 1.156,0.384 1.86,0.384 0.768,0 1.344,-0.176 1.728,-0.528 0.384,-0.352 0.576,-0.784 0.576,-1.296 0,-0.304 -0.08,-0.568 -0.24,-0.792 -0.16,-0.224 -0.364,-0.42 -0.612,-0.588 -0.248,-0.168 -0.532,-0.316 -0.852,-0.444 -0.32,-0.128 -0.64,-0.256 -0.96,-0.384 -0.416,-0.144 -0.832,-0.308 -1.248,-0.492 -0.416,-0.184 -0.788,-0.408 -1.116,-0.672 -0.328,-0.264 -0.596,-0.572 -0.804,-0.924 -0.208,-0.352 -0.312,-0.776 -0.312,-1.272 0,-0.464 0.092,-0.9 0.276,-1.308 0.184,-0.408 0.448,-0.76 0.792,-1.056 0.344,-0.296 0.764,-0.528 1.26,-0.696 0.496,-0.168 1.056,-0.252 1.68,-0.252 0.736,0 1.412,0.128 2.028,0.384 0.616,0.256 1.148,0.568 1.596,0.936 l -0.936,1.248 c -0.4,-0.304 -0.816,-0.552 -1.248,-0.744 -0.432,-0.192 -0.904,-0.288 -1.416,-0.288 -0.736,0 -1.276,0.168 -1.62,0.504 -0.344,0.336 -0.516,0.728 -0.516,1.176 0,0.272 0.072,0.508 0.216,0.708 0.144,0.2 0.336,0.376 0.576,0.528 0.24,0.152 0.516,0.288 0.828,0.408 0.312,0.12 0.636,0.244 0.972,0.372 0.416,0.16 0.836,0.328 1.26,0.504 0.424,0.176 0.804,0.396 1.14,0.66 0.336,0.264 0.612,0.588 0.828,0.972 0.216,0.384 0.324,0.848 0.324,1.392 0,0.48 -0.092,0.928 -0.276,1.344 -0.184,0.416 -0.456,0.784 -0.816,1.104 -0.36,0.32 -0.808,0.572 -1.344,0.756 -0.536,0.184 -1.148,0.276 -1.836,0.276 z"
   style="fill:#bfbfbf;fill-rule:nonzero"
   id="path68"
   inkscape:connector-curvature="0" />
            <path
   d="m 567.391,223.733 c -0.784,0 -1.516,-0.14 -2.196,-0.42 -0.68,-0.28 -1.272,-0.68 -1.776,-1.2 -0.504,-0.52 -0.9,-1.156 -1.188,-1.908 -0.288,-0.752 -0.432,-1.608 -0.432,-2.568 0,-0.96 0.148,-1.82 0.444,-2.58 0.296,-0.76 0.688,-1.404 1.176,-1.932 0.488,-0.528 1.044,-0.932 1.668,-1.212 0.624,-0.28 1.272,-0.42 1.944,-0.42 0.736,0 1.396,0.128 1.98,0.384 0.584,0.256 1.072,0.624 1.464,1.104 0.392,0.48 0.692,1.056 0.9,1.728 0.208,0.672 0.312,1.424 0.312,2.256 0,0.208 -0.004,0.412 -0.012,0.612 -0.008,0.2 -0.028,0.372 -0.06,0.516 h -7.872 c 0.08,1.248 0.468,2.236 1.164,2.964 0.696,0.728 1.604,1.092 2.724,1.092 0.56,0 1.076,-0.084 1.548,-0.252 0.472,-0.168 0.924,-0.388 1.356,-0.66 l 0.696,1.296 c -0.512,0.32 -1.08,0.6 -1.704,0.84 -0.624,0.24 -1.336,0.36 -2.136,0.36 z m -3.672,-7.056 h 6.24 c 0,-1.184 -0.252,-2.084 -0.756,-2.7 -0.504,-0.616 -1.212,-0.924 -2.124,-0.924 -0.416,0 -0.812,0.08 -1.188,0.24 -0.376,0.16 -0.716,0.396 -1.02,0.708 -0.304,0.312 -0.556,0.692 -0.756,1.14 -0.2,0.448 -0.332,0.96 -0.396,1.536 z"
   style="fill:#bfbfbf;fill-rule:nonzero"
   id="path70"
   inkscape:connector-curvature="0" />
            <path
   d="m 574.567,223.445 v -11.664 h 1.632 l 0.168,2.112 h 0.072 c 0.4,-0.736 0.884,-1.32 1.452,-1.752 0.568,-0.432 1.188,-0.648 1.86,-0.648 0.464,0 0.88,0.08 1.248,0.24 l -0.384,1.728 c -0.192,-0.064 -0.368,-0.112 -0.528,-0.144 -0.16,-0.032 -0.36,-0.048 -0.6,-0.048 -0.496,0 -1.012,0.2 -1.548,0.6 -0.536,0.4 -1.004,1.096 -1.404,2.088 v 7.488 z"
   style="fill:#bfbfbf;fill-rule:nonzero"
   id="path72"
   inkscape:connector-curvature="0" />
            <path
   d="m 586.015,223.445 -4.2,-11.664 h 2.04 l 2.208,6.624 c 0.176,0.576 0.356,1.152 0.54,1.728 0.184,0.576 0.364,1.144 0.54,1.704 h 0.096 c 0.176,-0.56 0.352,-1.128 0.528,-1.704 0.176,-0.576 0.352,-1.152 0.528,-1.728 l 2.208,-6.624 h 1.944 l -4.128,11.664 z"
   style="fill:#bfbfbf;fill-rule:nonzero"
   id="path74"
   inkscape:connector-curvature="0" />
            <path
   d="m 596.911,223.733 c -0.976,0 -1.788,-0.288 -2.436,-0.864 -0.648,-0.576 -0.972,-1.392 -0.972,-2.448 0,-1.28 0.568,-2.26 1.704,-2.94 1.136,-0.68 2.952,-1.156 5.448,-1.428 0,-0.368 -0.036,-0.728 -0.108,-1.08 -0.072,-0.352 -0.196,-0.664 -0.372,-0.936 -0.176,-0.272 -0.42,-0.492 -0.732,-0.66 -0.312,-0.168 -0.708,-0.252 -1.188,-0.252 -0.672,0 -1.304,0.128 -1.896,0.384 -0.592,0.256 -1.12,0.544 -1.584,0.864 l -0.768,-1.368 c 0.544,-0.352 1.208,-0.692 1.992,-1.02 0.784,-0.328 1.648,-0.492 2.592,-0.492 1.424,0 2.456,0.436 3.096,1.308 0.64,0.872 0.96,2.036 0.96,3.492 v 7.152 h -1.632 l -0.168,-1.392 h -0.072 c -0.56,0.464 -1.16,0.86 -1.8,1.188 -0.64,0.328 -1.328,0.492 -2.064,0.492 z m 0.576,-1.584 c 0.56,0 1.088,-0.132 1.584,-0.396 0.496,-0.264 1.024,-0.652 1.584,-1.164 v -3.24 c -0.976,0.128 -1.796,0.28 -2.46,0.456 -0.664,0.176 -1.2,0.384 -1.608,0.624 -0.408,0.24 -0.704,0.516 -0.888,0.828 -0.184,0.312 -0.276,0.652 -0.276,1.02 0,0.672 0.2,1.152 0.6,1.44 0.4,0.288 0.888,0.432 1.464,0.432 z"
   style="fill:#bfbfbf;fill-rule:nonzero"
   id="path76"
   inkscape:connector-curvature="0" />
            <path
   d="m 609.655,223.733 c -0.624,0 -1.148,-0.096 -1.572,-0.288 -0.424,-0.192 -0.768,-0.456 -1.032,-0.792 -0.264,-0.336 -0.452,-0.744 -0.564,-1.224 -0.112,-0.48 -0.168,-1.008 -0.168,-1.584 v -6.456 h -1.728 v -1.488 l 1.824,-0.12 0.24,-3.264 h 1.656 v 3.264 h 3.144 v 1.608 h -3.144 v 6.48 c 0,0.72 0.132,1.276 0.396,1.668 0.264,0.392 0.732,0.588 1.404,0.588 0.208,0 0.432,-0.032 0.672,-0.096 0.24,-0.064 0.456,-0.136 0.648,-0.216 l 0.384,1.488 c -0.32,0.112 -0.668,0.212 -1.044,0.3 -0.376,0.088 -0.748,0.132 -1.116,0.132 z"
   style="fill:#bfbfbf;fill-rule:nonzero"
   id="path78"
   inkscape:connector-curvature="0" />
            <path
   d="m 614.095,223.445 v -11.664 h 1.968 v 11.664 z m 1.008,-14.064 c -0.384,0 -0.708,-0.12 -0.972,-0.36 -0.264,-0.24 -0.396,-0.544 -0.396,-0.912 0,-0.384 0.132,-0.692 0.396,-0.924 0.264,-0.232 0.588,-0.348 0.972,-0.348 0.384,0 0.708,0.116 0.972,0.348 0.264,0.232 0.396,0.54 0.396,0.924 0,0.368 -0.132,0.672 -0.396,0.912 -0.264,0.24 -0.588,0.36 -0.972,0.36 z"
   style="fill:#bfbfbf;fill-rule:nonzero"
   id="path80"
   inkscape:connector-curvature="0" />
            <path
   d="m 624.535,223.733 c -0.72,0 -1.404,-0.136 -2.052,-0.408 -0.648,-0.272 -1.22,-0.668 -1.716,-1.188 -0.496,-0.52 -0.892,-1.16 -1.188,-1.92 -0.296,-0.76 -0.444,-1.62 -0.444,-2.58 0,-0.976 0.148,-1.844 0.444,-2.604 0.296,-0.76 0.692,-1.404 1.188,-1.932 0.496,-0.528 1.068,-0.928 1.716,-1.2 0.648,-0.272 1.332,-0.408 2.052,-0.408 0.72,0 1.404,0.136 2.052,0.408 0.648,0.272 1.22,0.672 1.716,1.2 0.496,0.528 0.892,1.172 1.188,1.932 0.296,0.76 0.444,1.628 0.444,2.604 0,0.96 -0.148,1.82 -0.444,2.58 -0.296,0.76 -0.692,1.4 -1.188,1.92 -0.496,0.52 -1.068,0.916 -1.716,1.188 -0.648,0.272 -1.332,0.408 -2.052,0.408 z m 0,-1.632 c 0.496,0 0.952,-0.108 1.368,-0.324 0.416,-0.216 0.772,-0.52 1.068,-0.912 0.296,-0.392 0.524,-0.86 0.684,-1.404 0.16,-0.544 0.24,-1.152 0.24,-1.824 0,-0.672 -0.08,-1.284 -0.24,-1.836 -0.16,-0.552 -0.388,-1.028 -0.684,-1.428 -0.296,-0.4 -0.652,-0.708 -1.068,-0.924 -0.416,-0.216 -0.872,-0.324 -1.368,-0.324 -0.496,0 -0.952,0.108 -1.368,0.324 -0.416,0.216 -0.772,0.524 -1.068,0.924 -0.296,0.4 -0.524,0.876 -0.684,1.428 -0.16,0.552 -0.24,1.164 -0.24,1.836 0,0.672 0.08,1.28 0.24,1.824 0.16,0.544 0.388,1.012 0.684,1.404 0.296,0.392 0.652,0.696 1.068,0.912 0.416,0.216 0.872,0.324 1.368,0.324 z"
   style="fill:#bfbfbf;fill-rule:nonzero"
   id="path82"
   inkscape:connector-curvature="0" />
            <path
   d="m 633.007,223.445 v -11.664 h 1.632 l 0.168,1.68 h 0.072 c 0.56,-0.56 1.148,-1.028 1.764,-1.404 0.616,-0.376 1.332,-0.564 2.148,-0.564 1.232,0 2.132,0.384 2.7,1.152 0.568,0.768 0.852,1.904 0.852,3.408 v 7.392 h -1.968 v -7.128 c 0,-1.104 -0.176,-1.9 -0.528,-2.388 -0.352,-0.488 -0.912,-0.732 -1.68,-0.732 -0.608,0 -1.144,0.152 -1.608,0.456 -0.464,0.304 -0.992,0.752 -1.584,1.344 v 8.448 z"
   style="fill:#bfbfbf;fill-rule:nonzero"
   id="path84"
   inkscape:connector-curvature="0" />
            <path
   d="m 649.183,223.733 c -0.832,0 -1.624,-0.152 -2.376,-0.456 -0.752,-0.304 -1.408,-0.688 -1.968,-1.152 l 0.984,-1.32 c 0.512,0.416 1.036,0.752 1.572,1.008 0.536,0.256 1.156,0.384 1.86,0.384 0.768,0 1.344,-0.176 1.728,-0.528 0.384,-0.352 0.576,-0.784 0.576,-1.296 0,-0.304 -0.08,-0.568 -0.24,-0.792 -0.16,-0.224 -0.364,-0.42 -0.612,-0.588 -0.248,-0.168 -0.532,-0.316 -0.852,-0.444 -0.32,-0.128 -0.64,-0.256 -0.96,-0.384 -0.416,-0.144 -0.832,-0.308 -1.248,-0.492 -0.416,-0.184 -0.788,-0.408 -1.116,-0.672 -0.328,-0.264 -0.596,-0.572 -0.804,-0.924 -0.208,-0.352 -0.312,-0.776 -0.312,-1.272 0,-0.464 0.092,-0.9 0.276,-1.308 0.184,-0.408 0.448,-0.76 0.792,-1.056 0.344,-0.296 0.764,-0.528 1.26,-0.696 0.496,-0.168 1.056,-0.252 1.68,-0.252 0.736,0 1.412,0.128 2.028,0.384 0.616,0.256 1.148,0.568 1.596,0.936 l -0.936,1.248 c -0.4,-0.304 -0.816,-0.552 -1.248,-0.744 -0.432,-0.192 -0.904,-0.288 -1.416,-0.288 -0.736,0 -1.276,0.168 -1.62,0.504 -0.344,0.336 -0.516,0.728 -0.516,1.176 0,0.272 0.072,0.508 0.216,0.708 0.144,0.2 0.336,0.376 0.576,0.528 0.24,0.152 0.516,0.288 0.828,0.408 0.312,0.12 0.636,0.244 0.972,0.372 0.416,0.16 0.836,0.328 1.26,0.504 0.424,0.176 0.804,0.396 1.14,0.66 0.336,0.264 0.612,0.588 0.828,0.972 0.216,0.384 0.324,0.848 0.324,1.392 0,0.48 -0.092,0.928 -0.276,1.344 -0.184,0.416 -0.456,0.784 -0.816,1.104 -0.36,0.32 -0.808,0.572 -1.344,0.756 -0.536,0.184 -1.148,0.276 -1.836,0.276 z"
   style="fill:#bfbfbf;fill-rule:nonzero"
   id="path86"
   inkscape:connector-curvature="0" />
        </g>
        <g
   transform="translate(-298.385,365.01)"
   id="g110">
            <path
   d="m 526.519,223.445 v -15.744 h 3.936 c 2.432,0 4.28,0.672 5.544,2.016 1.264,1.344 1.896,3.272 1.896,5.784 0,1.248 -0.16,2.364 -0.48,3.348 -0.32,0.984 -0.792,1.816 -1.416,2.496 -0.624,0.68 -1.392,1.2 -2.304,1.56 -0.912,0.36 -1.96,0.54 -3.144,0.54 z m 1.992,-1.632 h 1.8 c 1.84,0 3.22,-0.552 4.14,-1.656 0.92,-1.104 1.38,-2.656 1.38,-4.656 0,-2 -0.46,-3.528 -1.38,-4.584 -0.92,-1.056 -2.3,-1.584 -4.14,-1.584 h -1.8 z"
   style="fill:#6c7a89;fill-rule:nonzero"
   id="path90"
   inkscape:connector-curvature="0" />
            <path
   d="m 543.775,223.733 c -0.976,0 -1.788,-0.288 -2.436,-0.864 -0.648,-0.576 -0.972,-1.392 -0.972,-2.448 0,-1.28 0.568,-2.26 1.704,-2.94 1.136,-0.68 2.952,-1.156 5.448,-1.428 0,-0.368 -0.036,-0.728 -0.108,-1.08 -0.072,-0.352 -0.196,-0.664 -0.372,-0.936 -0.176,-0.272 -0.42,-0.492 -0.732,-0.66 -0.312,-0.168 -0.708,-0.252 -1.188,-0.252 -0.672,0 -1.304,0.128 -1.896,0.384 -0.592,0.256 -1.12,0.544 -1.584,0.864 l -0.768,-1.368 c 0.544,-0.352 1.208,-0.692 1.992,-1.02 0.784,-0.328 1.648,-0.492 2.592,-0.492 1.424,0 2.456,0.436 3.096,1.308 0.64,0.872 0.96,2.036 0.96,3.492 v 7.152 h -1.632 l -0.168,-1.392 h -0.072 c -0.56,0.464 -1.16,0.86 -1.8,1.188 -0.64,0.328 -1.328,0.492 -2.064,0.492 z m 0.576,-1.584 c 0.56,0 1.088,-0.132 1.584,-0.396 0.496,-0.264 1.024,-0.652 1.584,-1.164 v -3.24 c -0.976,0.128 -1.796,0.28 -2.46,0.456 -0.664,0.176 -1.2,0.384 -1.608,0.624 -0.408,0.24 -0.704,0.516 -0.888,0.828 -0.184,0.312 -0.276,0.652 -0.276,1.02 0,0.672 0.2,1.152 0.6,1.44 0.4,0.288 0.888,0.432 1.464,0.432 z"
   style="fill:#6c7a89;fill-rule:nonzero"
   id="path92"
   inkscape:connector-curvature="0" />
            <path
   d="m 556.519,223.733 c -0.624,0 -1.148,-0.096 -1.572,-0.288 -0.424,-0.192 -0.768,-0.456 -1.032,-0.792 -0.264,-0.336 -0.452,-0.744 -0.564,-1.224 -0.112,-0.48 -0.168,-1.008 -0.168,-1.584 v -6.456 h -1.728 v -1.488 l 1.824,-0.12 0.24,-3.264 h 1.656 v 3.264 h 3.144 v 1.608 h -3.144 v 6.48 c 0,0.72 0.132,1.276 0.396,1.668 0.264,0.392 0.732,0.588 1.404,0.588 0.208,0 0.432,-0.032 0.672,-0.096 0.24,-0.064 0.456,-0.136 0.648,-0.216 l 0.384,1.488 c -0.32,0.112 -0.668,0.212 -1.044,0.3 -0.376,0.088 -0.748,0.132 -1.116,0.132 z"
   style="fill:#6c7a89;fill-rule:nonzero"
   id="path94"
   inkscape:connector-curvature="0" />
            <path
   d="m 563.143,223.733 c -0.976,0 -1.788,-0.288 -2.436,-0.864 -0.648,-0.576 -0.972,-1.392 -0.972,-2.448 0,-1.28 0.568,-2.26 1.704,-2.94 1.136,-0.68 2.952,-1.156 5.448,-1.428 0,-0.368 -0.036,-0.728 -0.108,-1.08 -0.072,-0.352 -0.196,-0.664 -0.372,-0.936 -0.176,-0.272 -0.42,-0.492 -0.732,-0.66 -0.312,-0.168 -0.708,-0.252 -1.188,-0.252 -0.672,0 -1.304,0.128 -1.896,0.384 -0.592,0.256 -1.12,0.544 -1.584,0.864 l -0.768,-1.368 c 0.544,-0.352 1.208,-0.692 1.992,-1.02 0.784,-0.328 1.648,-0.492 2.592,-0.492 1.424,0 2.456,0.436 3.096,1.308 0.64,0.872 0.96,2.036 0.96,3.492 v 7.152 h -1.632 l -0.168,-1.392 h -0.072 c -0.56,0.464 -1.16,0.86 -1.8,1.188 -0.64,0.328 -1.328,0.492 -2.064,0.492 z m 0.576,-1.584 c 0.56,0 1.088,-0.132 1.584,-0.396 0.496,-0.264 1.024,-0.652 1.584,-1.164 v -3.24 c -0.976,0.128 -1.796,0.28 -2.46,0.456 -0.664,0.176 -1.2,0.384 -1.608,0.624 -0.408,0.24 -0.704,0.516 -0.888,0.828 -0.184,0.312 -0.276,0.652 -0.276,1.02 0,0.672 0.2,1.152 0.6,1.44 0.4,0.288 0.888,0.432 1.464,0.432 z"
   style="fill:#6c7a89;fill-rule:nonzero"
   id="path96"
   inkscape:connector-curvature="0" />
            <path
   d="m 581.023,223.733 c -0.624,0 -1.148,-0.096 -1.572,-0.288 -0.424,-0.192 -0.768,-0.456 -1.032,-0.792 -0.264,-0.336 -0.452,-0.744 -0.564,-1.224 -0.112,-0.48 -0.168,-1.008 -0.168,-1.584 v -6.456 h -1.728 v -1.488 l 1.824,-0.12 0.24,-3.264 h 1.656 v 3.264 h 3.144 v 1.608 h -3.144 v 6.48 c 0,0.72 0.132,1.276 0.396,1.668 0.264,0.392 0.732,0.588 1.404,0.588 0.208,0 0.432,-0.032 0.672,-0.096 0.24,-0.064 0.456,-0.136 0.648,-0.216 l 0.384,1.488 c -0.32,0.112 -0.668,0.212 -1.044,0.3 -0.376,0.088 -0.748,0.132 -1.116,0.132 z"
   style="fill:#6c7a89;fill-rule:nonzero"
   id="path98"
   inkscape:connector-curvature="0" />
            <path
   d="m 589.855,223.733 c -0.784,0 -1.516,-0.14 -2.196,-0.42 -0.68,-0.28 -1.272,-0.68 -1.776,-1.2 -0.504,-0.52 -0.9,-1.156 -1.188,-1.908 -0.288,-0.752 -0.432,-1.608 -0.432,-2.568 0,-0.96 0.148,-1.82 0.444,-2.58 0.296,-0.76 0.688,-1.404 1.176,-1.932 0.488,-0.528 1.044,-0.932 1.668,-1.212 0.624,-0.28 1.272,-0.42 1.944,-0.42 0.736,0 1.396,0.128 1.98,0.384 0.584,0.256 1.072,0.624 1.464,1.104 0.392,0.48 0.692,1.056 0.9,1.728 0.208,0.672 0.312,1.424 0.312,2.256 0,0.208 -0.004,0.412 -0.012,0.612 -0.008,0.2 -0.028,0.372 -0.06,0.516 h -7.872 c 0.08,1.248 0.468,2.236 1.164,2.964 0.696,0.728 1.604,1.092 2.724,1.092 0.56,0 1.076,-0.084 1.548,-0.252 0.472,-0.168 0.924,-0.388 1.356,-0.66 l 0.696,1.296 c -0.512,0.32 -1.08,0.6 -1.704,0.84 -0.624,0.24 -1.336,0.36 -2.136,0.36 z m -3.672,-7.056 h 6.24 c 0,-1.184 -0.252,-2.084 -0.756,-2.7 -0.504,-0.616 -1.212,-0.924 -2.124,-0.924 -0.416,0 -0.812,0.08 -1.188,0.24 -0.376,0.16 -0.716,0.396 -1.02,0.708 -0.304,0.312 -0.556,0.692 -0.756,1.14 -0.2,0.448 -0.332,0.96 -0.396,1.536 z"
   style="fill:#6c7a89;fill-rule:nonzero"
   id="path100"
   inkscape:connector-curvature="0" />
            <path
   d="m 597.031,223.445 v -11.664 h 1.632 l 0.168,1.68 h 0.072 c 0.56,-0.56 1.148,-1.028 1.764,-1.404 0.616,-0.376 1.332,-0.564 2.148,-0.564 1.232,0 2.132,0.384 2.7,1.152 0.568,0.768 0.852,1.904 0.852,3.408 v 7.392 h -1.968 v -7.128 c 0,-1.104 -0.176,-1.9 -0.528,-2.388 -0.352,-0.488 -0.912,-0.732 -1.68,-0.732 -0.608,0 -1.144,0.152 -1.608,0.456 -0.464,0.304 -0.992,0.752 -1.584,1.344 v 8.448 z"
   style="fill:#6c7a89;fill-rule:nonzero"
   id="path102"
   inkscape:connector-curvature="0" />
            <path
   d="m 613.207,223.733 c -0.832,0 -1.624,-0.152 -2.376,-0.456 -0.752,-0.304 -1.408,-0.688 -1.968,-1.152 l 0.984,-1.32 c 0.512,0.416 1.036,0.752 1.572,1.008 0.536,0.256 1.156,0.384 1.86,0.384 0.768,0 1.344,-0.176 1.728,-0.528 0.384,-0.352 0.576,-0.784 0.576,-1.296 0,-0.304 -0.08,-0.568 -0.24,-0.792 -0.16,-0.224 -0.364,-0.42 -0.612,-0.588 -0.248,-0.168 -0.532,-0.316 -0.852,-0.444 -0.32,-0.128 -0.64,-0.256 -0.96,-0.384 -0.416,-0.144 -0.832,-0.308 -1.248,-0.492 -0.416,-0.184 -0.788,-0.408 -1.116,-0.672 -0.328,-0.264 -0.596,-0.572 -0.804,-0.924 -0.208,-0.352 -0.312,-0.776 -0.312,-1.272 0,-0.464 0.092,-0.9 0.276,-1.308 0.184,-0.408 0.448,-0.76 0.792,-1.056 0.344,-0.296 0.764,-0.528 1.26,-0.696 0.496,-0.168 1.056,-0.252 1.68,-0.252 0.736,0 1.412,0.128 2.028,0.384 0.616,0.256 1.148,0.568 1.596,0.936 l -0.936,1.248 c -0.4,-0.304 -0.816,-0.552 -1.248,-0.744 -0.432,-0.192 -0.904,-0.288 -1.416,-0.288 -0.736,0 -1.276,0.168 -1.62,0.504 -0.344,0.336 -0.516,0.728 -0.516,1.176 0,0.272 0.072,0.508 0.216,0.708 0.144,0.2 0.336,0.376 0.576,0.528 0.24,0.152 0.516,0.288 0.828,0.408 0.312,0.12 0.636,0.244 0.972,0.372 0.416,0.16 0.836,0.328 1.26,0.504 0.424,0.176 0.804,0.396 1.14,0.66 0.336,0.264 0.612,0.588 0.828,0.972 0.216,0.384 0.324,0.848 0.324,1.392 0,0.48 -0.092,0.928 -0.276,1.344 -0.184,0.416 -0.456,0.784 -0.816,1.104 -0.36,0.32 -0.808,0.572 -1.344,0.756 -0.536,0.184 -1.148,0.276 -1.836,0.276 z"
   style="fill:#6c7a89;fill-rule:nonzero"
   id="path104"
   inkscape:connector-curvature="0" />
            <path
   d="m 624.751,223.733 c -0.72,0 -1.404,-0.136 -2.052,-0.408 -0.648,-0.272 -1.22,-0.668 -1.716,-1.188 -0.496,-0.52 -0.892,-1.16 -1.188,-1.92 -0.296,-0.76 -0.444,-1.62 -0.444,-2.58 0,-0.976 0.148,-1.844 0.444,-2.604 0.296,-0.76 0.692,-1.404 1.188,-1.932 0.496,-0.528 1.068,-0.928 1.716,-1.2 0.648,-0.272 1.332,-0.408 2.052,-0.408 0.72,0 1.404,0.136 2.052,0.408 0.648,0.272 1.22,0.672 1.716,1.2 0.496,0.528 0.892,1.172 1.188,1.932 0.296,0.76 0.444,1.628 0.444,2.604 0,0.96 -0.148,1.82 -0.444,2.58 -0.296,0.76 -0.692,1.4 -1.188,1.92 -0.496,0.52 -1.068,0.916 -1.716,1.188 -0.648,0.272 -1.332,0.408 -2.052,0.408 z m 0,-1.632 c 0.496,0 0.952,-0.108 1.368,-0.324 0.416,-0.216 0.772,-0.52 1.068,-0.912 0.296,-0.392 0.524,-0.86 0.684,-1.404 0.16,-0.544 0.24,-1.152 0.24,-1.824 0,-0.672 -0.08,-1.284 -0.24,-1.836 -0.16,-0.552 -0.388,-1.028 -0.684,-1.428 -0.296,-0.4 -0.652,-0.708 -1.068,-0.924 -0.416,-0.216 -0.872,-0.324 -1.368,-0.324 -0.496,0 -0.952,0.108 -1.368,0.324 -0.416,0.216 -0.772,0.524 -1.068,0.924 -0.296,0.4 -0.524,0.876 -0.684,1.428 -0.16,0.552 -0.24,1.164 -0.24,1.836 0,0.672 0.08,1.28 0.24,1.824 0.16,0.544 0.388,1.012 0.684,1.404 0.296,0.392 0.652,0.696 1.068,0.912 0.416,0.216 0.872,0.324 1.368,0.324 z"
   style="fill:#6c7a89;fill-rule:nonzero"
   id="path106"
   inkscape:connector-curvature="0" />
            <path
   d="m 633.223,223.445 v -11.664 h 1.632 l 0.168,2.112 h 0.072 c 0.4,-0.736 0.884,-1.32 1.452,-1.752 0.568,-0.432 1.188,-0.648 1.86,-0.648 0.464,0 0.88,0.08 1.248,0.24 l -0.384,1.728 c -0.192,-0.064 -0.368,-0.112 -0.528,-0.144 -0.16,-0.032 -0.36,-0.048 -0.6,-0.048 -0.496,0 -1.012,0.2 -1.548,0.6 -0.536,0.4 -1.004,1.096 -1.404,2.088 v 7.488 z"
   style="fill:#6c7a89;fill-rule:nonzero"
   id="path108"
   inkscape:connector-curvature="0" />
        </g>
    </g>
    <g
   transform="translate(-479.5992,-457.82)"
   id="g174">
        <g
   transform="matrix(0.18912,0,0,1,1030.58,193.679)"
   id="g116">
            <path
   d="M 176.988,556.25 H 313.399 V 400 H 177.565 Z"
   style="fill:#649aca;stroke:#000000;stroke-width:1.38999999px"
   id="path114"
   inkscape:connector-curvature="0" />
        </g>
        <g
   transform="matrix(0,0.818063,-1,0,1610.3,452.972)"
   id="g120">
            <path
   d="M 172,566.825 V 573 563.5 554 560.175 H 339.774 V 554 L 363,563.5 339.774,573 v -6.175 z"
   style="fill:#bfbfbf"
   id="path118"
   inkscape:connector-curvature="0" />
        </g>
        <g
   transform="rotate(-90,1032.4415,219.7985)"
   id="g146">
            <path
   d="m 530.863,223.733 c -0.72,0 -1.404,-0.136 -2.052,-0.408 -0.648,-0.272 -1.22,-0.668 -1.716,-1.188 -0.496,-0.52 -0.892,-1.16 -1.188,-1.92 -0.296,-0.76 -0.444,-1.62 -0.444,-2.58 0,-0.976 0.148,-1.844 0.444,-2.604 0.296,-0.76 0.692,-1.404 1.188,-1.932 0.496,-0.528 1.068,-0.928 1.716,-1.2 0.648,-0.272 1.332,-0.408 2.052,-0.408 0.72,0 1.404,0.136 2.052,0.408 0.648,0.272 1.22,0.672 1.716,1.2 0.496,0.528 0.892,1.172 1.188,1.932 0.296,0.76 0.444,1.628 0.444,2.604 0,0.96 -0.148,1.82 -0.444,2.58 -0.296,0.76 -0.692,1.4 -1.188,1.92 -0.496,0.52 -1.068,0.916 -1.716,1.188 -0.648,0.272 -1.332,0.408 -2.052,0.408 z m 0,-1.632 c 0.496,0 0.952,-0.108 1.368,-0.324 0.416,-0.216 0.772,-0.52 1.068,-0.912 0.296,-0.392 0.524,-0.86 0.684,-1.404 0.16,-0.544 0.24,-1.152 0.24,-1.824 0,-0.672 -0.08,-1.284 -0.24,-1.836 -0.16,-0.552 -0.388,-1.028 -0.684,-1.428 -0.296,-0.4 -0.652,-0.708 -1.068,-0.924 -0.416,-0.216 -0.872,-0.324 -1.368,-0.324 -0.496,0 -0.952,0.108 -1.368,0.324 -0.416,0.216 -0.772,0.524 -1.068,0.924 -0.296,0.4 -0.524,0.876 -0.684,1.428 -0.16,0.552 -0.24,1.164 -0.24,1.836 0,0.672 0.08,1.28 0.24,1.824 0.16,0.544 0.388,1.012 0.684,1.404 0.296,0.392 0.652,0.696 1.068,0.912 0.416,0.216 0.872,0.324 1.368,0.324 z"
   style="fill:#bfbfbf;fill-rule:nonzero"
   id="path122"
   inkscape:connector-curvature="0" />
            <path
   d="m 544.495,223.733 c -0.544,0 -1.108,-0.132 -1.692,-0.396 -0.584,-0.264 -1.132,-0.628 -1.644,-1.092 h -0.072 l -0.168,1.2 h -1.584 v -17.088 h 1.968 v 4.656 l -0.048,2.112 c 0.528,-0.464 1.104,-0.852 1.728,-1.164 0.624,-0.312 1.264,-0.468 1.92,-0.468 0.752,0 1.416,0.14 1.992,0.42 0.576,0.28 1.06,0.68 1.452,1.2 0.392,0.52 0.688,1.144 0.888,1.872 0.2,0.728 0.3,1.54 0.3,2.436 0,0.992 -0.136,1.88 -0.408,2.664 -0.272,0.784 -0.64,1.448 -1.104,1.992 -0.464,0.544 -1,0.956 -1.608,1.236 -0.608,0.28 -1.248,0.42 -1.92,0.42 z m -0.336,-1.656 c 0.48,0 0.924,-0.108 1.332,-0.324 0.408,-0.216 0.76,-0.52 1.056,-0.912 0.296,-0.392 0.528,-0.876 0.696,-1.452 0.168,-0.576 0.252,-1.224 0.252,-1.944 0,-0.64 -0.056,-1.224 -0.168,-1.752 -0.112,-0.528 -0.292,-0.98 -0.54,-1.356 -0.248,-0.376 -0.568,-0.668 -0.96,-0.876 -0.392,-0.208 -0.86,-0.312 -1.404,-0.312 -0.944,0 -1.984,0.528 -3.12,1.584 v 6.12 c 0.512,0.448 1.02,0.764 1.524,0.948 0.504,0.184 0.948,0.276 1.332,0.276 z"
   style="fill:#bfbfbf;fill-rule:nonzero"
   id="path124"
   inkscape:connector-curvature="0" />
            <path
   d="m 555.655,223.733 c -0.832,0 -1.624,-0.152 -2.376,-0.456 -0.752,-0.304 -1.408,-0.688 -1.968,-1.152 l 0.984,-1.32 c 0.512,0.416 1.036,0.752 1.572,1.008 0.536,0.256 1.156,0.384 1.86,0.384 0.768,0 1.344,-0.176 1.728,-0.528 0.384,-0.352 0.576,-0.784 0.576,-1.296 0,-0.304 -0.08,-0.568 -0.24,-0.792 -0.16,-0.224 -0.364,-0.42 -0.612,-0.588 -0.248,-0.168 -0.532,-0.316 -0.852,-0.444 -0.32,-0.128 -0.64,-0.256 -0.96,-0.384 -0.416,-0.144 -0.832,-0.308 -1.248,-0.492 -0.416,-0.184 -0.788,-0.408 -1.116,-0.672 -0.328,-0.264 -0.596,-0.572 -0.804,-0.924 -0.208,-0.352 -0.312,-0.776 -0.312,-1.272 0,-0.464 0.092,-0.9 0.276,-1.308 0.184,-0.408 0.448,-0.76 0.792,-1.056 0.344,-0.296 0.764,-0.528 1.26,-0.696 0.496,-0.168 1.056,-0.252 1.68,-0.252 0.736,0 1.412,0.128 2.028,0.384 0.616,0.256 1.148,0.568 1.596,0.936 l -0.936,1.248 c -0.4,-0.304 -0.816,-0.552 -1.248,-0.744 -0.432,-0.192 -0.904,-0.288 -1.416,-0.288 -0.736,0 -1.276,0.168 -1.62,0.504 -0.344,0.336 -0.516,0.728 -0.516,1.176 0,0.272 0.072,0.508 0.216,0.708 0.144,0.2 0.336,0.376 0.576,0.528 0.24,0.152 0.516,0.288 0.828,0.408 0.312,0.12 0.636,0.244 0.972,0.372 0.416,0.16 0.836,0.328 1.26,0.504 0.424,0.176 0.804,0.396 1.14,0.66 0.336,0.264 0.612,0.588 0.828,0.972 0.216,0.384 0.324,0.848 0.324,1.392 0,0.48 -0.092,0.928 -0.276,1.344 -0.184,0.416 -0.456,0.784 -0.816,1.104 -0.36,0.32 -0.808,0.572 -1.344,0.756 -0.536,0.184 -1.148,0.276 -1.836,0.276 z"
   style="fill:#bfbfbf;fill-rule:nonzero"
   id="path126"
   inkscape:connector-curvature="0" />
            <path
   d="m 567.391,223.733 c -0.784,0 -1.516,-0.14 -2.196,-0.42 -0.68,-0.28 -1.272,-0.68 -1.776,-1.2 -0.504,-0.52 -0.9,-1.156 -1.188,-1.908 -0.288,-0.752 -0.432,-1.608 -0.432,-2.568 0,-0.96 0.148,-1.82 0.444,-2.58 0.296,-0.76 0.688,-1.404 1.176,-1.932 0.488,-0.528 1.044,-0.932 1.668,-1.212 0.624,-0.28 1.272,-0.42 1.944,-0.42 0.736,0 1.396,0.128 1.98,0.384 0.584,0.256 1.072,0.624 1.464,1.104 0.392,0.48 0.692,1.056 0.9,1.728 0.208,0.672 0.312,1.424 0.312,2.256 0,0.208 -0.004,0.412 -0.012,0.612 -0.008,0.2 -0.028,0.372 -0.06,0.516 h -7.872 c 0.08,1.248 0.468,2.236 1.164,2.964 0.696,0.728 1.604,1.092 2.724,1.092 0.56,0 1.076,-0.084 1.548,-0.252 0.472,-0.168 0.924,-0.388 1.356,-0.66 l 0.696,1.296 c -0.512,0.32 -1.08,0.6 -1.704,0.84 -0.624,0.24 -1.336,0.36 -2.136,0.36 z m -3.672,-7.056 h 6.24 c 0,-1.184 -0.252,-2.084 -0.756,-2.7 -0.504,-0.616 -1.212,-0.924 -2.124,-0.924 -0.416,0 -0.812,0.08 -1.188,0.24 -0.376,0.16 -0.716,0.396 -1.02,0.708 -0.304,0.312 -0.556,0.692 -0.756,1.14 -0.2,0.448 -0.332,0.96 -0.396,1.536 z"
   style="fill:#bfbfbf;fill-rule:nonzero"
   id="path128"
   inkscape:connector-curvature="0" />
            <path
   d="m 574.567,223.445 v -11.664 h 1.632 l 0.168,2.112 h 0.072 c 0.4,-0.736 0.884,-1.32 1.452,-1.752 0.568,-0.432 1.188,-0.648 1.86,-0.648 0.464,0 0.88,0.08 1.248,0.24 l -0.384,1.728 c -0.192,-0.064 -0.368,-0.112 -0.528,-0.144 -0.16,-0.032 -0.36,-0.048 -0.6,-0.048 -0.496,0 -1.012,0.2 -1.548,0.6 -0.536,0.4 -1.004,1.096 -1.404,2.088 v 7.488 z"
   style="fill:#bfbfbf;fill-rule:nonzero"
   id="path130"
   inkscape:connector-curvature="0" />
            <path
   d="m 586.015,223.445 -4.2,-11.664 h 2.04 l 2.208,6.624 c 0.176,0.576 0.356,1.152 0.54,1.728 0.184,0.576 0.364,1.144 0.54,1.704 h 0.096 c 0.176,-0.56 0.352,-1.128 0.528,-1.704 0.176,-0.576 0.352,-1.152 0.528,-1.728 l 2.208,-6.624 h 1.944 l -4.128,11.664 z"
   style="fill:#bfbfbf;fill-rule:nonzero"
   id="path132"
   inkscape:connector-curvature="0" />
            <path
   d="m 596.911,223.733 c -0.976,0 -1.788,-0.288 -2.436,-0.864 -0.648,-0.576 -0.972,-1.392 -0.972,-2.448 0,-1.28 0.568,-2.26 1.704,-2.94 1.136,-0.68 2.952,-1.156 5.448,-1.428 0,-0.368 -0.036,-0.728 -0.108,-1.08 -0.072,-0.352 -0.196,-0.664 -0.372,-0.936 -0.176,-0.272 -0.42,-0.492 -0.732,-0.66 -0.312,-0.168 -0.708,-0.252 -1.188,-0.252 -0.672,0 -1.304,0.128 -1.896,0.384 -0.592,0.256 -1.12,0.544 -1.584,0.864 l -0.768,-1.368 c 0.544,-0.352 1.208,-0.692 1.992,-1.02 0.784,-0.328 1.648,-0.492 2.592,-0.492 1.424,0 2.456,0.436 3.096,1.308 0.64,0.872 0.96,2.036 0.96,3.492 v 7.152 h -1.632 l -0.168,-1.392 h -0.072 c -0.56,0.464 -1.16,0.86 -1.8,1.188 -0.64,0.328 -1.328,0.492 -2.064,0.492 z m 0.576,-1.584 c 0.56,0 1.088,-0.132 1.584,-0.396 0.496,-0.264 1.024,-0.652 1.584,-1.164 v -3.24 c -0.976,0.128 -1.796,0.28 -2.46,0.456 -0.664,0.176 -1.2,0.384 -1.608,0.624 -0.408,0.24 -0.704,0.516 -0.888,0.828 -0.184,0.312 -0.276,0.652 -0.276,1.02 0,0.672 0.2,1.152 0.6,1.44 0.4,0.288 0.888,0.432 1.464,0.432 z"
   style="fill:#bfbfbf;fill-rule:nonzero"
   id="path134"
   inkscape:connector-curvature="0" />
            <path
   d="m 609.655,223.733 c -0.624,0 -1.148,-0.096 -1.572,-0.288 -0.424,-0.192 -0.768,-0.456 -1.032,-0.792 -0.264,-0.336 -0.452,-0.744 -0.564,-1.224 -0.112,-0.48 -0.168,-1.008 -0.168,-1.584 v -6.456 h -1.728 v -1.488 l 1.824,-0.12 0.24,-3.264 h 1.656 v 3.264 h 3.144 v 1.608 h -3.144 v 6.48 c 0,0.72 0.132,1.276 0.396,1.668 0.264,0.392 0.732,0.588 1.404,0.588 0.208,0 0.432,-0.032 0.672,-0.096 0.24,-0.064 0.456,-0.136 0.648,-0.216 l 0.384,1.488 c -0.32,0.112 -0.668,0.212 -1.044,0.3 -0.376,0.088 -0.748,0.132 -1.116,0.132 z"
   style="fill:#bfbfbf;fill-rule:nonzero"
   id="path136"
   inkscape:connector-curvature="0" />
            <path
   d="m 614.095,223.445 v -11.664 h 1.968 v 11.664 z m 1.008,-14.064 c -0.384,0 -0.708,-0.12 -0.972,-0.36 -0.264,-0.24 -0.396,-0.544 -0.396,-0.912 0,-0.384 0.132,-0.692 0.396,-0.924 0.264,-0.232 0.588,-0.348 0.972,-0.348 0.384,0 0.708,0.116 0.972,0.348 0.264,0.232 0.396,0.54 0.396,0.924 0,0.368 -0.132,0.672 -0.396,0.912 -0.264,0.24 -0.588,0.36 -0.972,0.36 z"
   style="fill:#bfbfbf;fill-rule:nonzero"
   id="path138"
   inkscape:connector-curvature="0" />
            <path
   d="m 624.535,223.733 c -0.72,0 -1.404,-0.136 -2.052,-0.408 -0.648,-0.272 -1.22,-0.668 -1.716,-1.188 -0.496,-0.52 -0.892,-1.16 -1.188,-1.92 -0.296,-0.76 -0.444,-1.62 -0.444,-2.58 0,-0.976 0.148,-1.844 0.444,-2.604 0.296,-0.76 0.692,-1.404 1.188,-1.932 0.496,-0.528 1.068,-0.928 1.716,-1.2 0.648,-0.272 1.332,-0.408 2.052,-0.408 0.72,0 1.404,0.136 2.052,0.408 0.648,0.272 1.22,0.672 1.716,1.2 0.496,0.528 0.892,1.172 1.188,1.932 0.296,0.76 0.444,1.628 0.444,2.604 0,0.96 -0.148,1.82 -0.444,2.58 -0.296,0.76 -0.692,1.4 -1.188,1.92 -0.496,0.52 -1.068,0.916 -1.716,1.188 -0.648,0.272 -1.332,0.408 -2.052,0.408 z m 0,-1.632 c 0.496,0 0.952,-0.108 1.368,-0.324 0.416,-0.216 0.772,-0.52 1.068,-0.912 0.296,-0.392 0.524,-0.86 0.684,-1.404 0.16,-0.544 0.24,-1.152 0.24,-1.824 0,-0.672 -0.08,-1.284 -0.24,-1.836 -0.16,-0.552 -0.388,-1.028 -0.684,-1.428 -0.296,-0.4 -0.652,-0.708 -1.068,-0.924 -0.416,-0.216 -0.872,-0.324 -1.368,-0.324 -0.496,0 -0.952,0.108 -1.368,0.324 -0.416,0.216 -0.772,0.524 -1.068,0.924 -0.296,0.4 -0.524,0.876 -0.684,1.428 -0.16,0.552 -0.24,1.164 -0.24,1.836 0,0.672 0.08,1.28 0.24,1.824 0.16,0.544 0.388,1.012 0.684,1.404 0.296,0.392 0.652,0.696 1.068,0.912 0.416,0.216 0.872,0.324 1.368,0.324 z"
   style="fill:#bfbfbf;fill-rule:nonzero"
   id="path140"
   inkscape:connector-curvature="0" />
            <path
   d="m 633.007,223.445 v -11.664 h 1.632 l 0.168,1.68 h 0.072 c 0.56,-0.56 1.148,-1.028 1.764,-1.404 0.616,-0.376 1.332,-0.564 2.148,-0.564 1.232,0 2.132,0.384 2.7,1.152 0.568,0.768 0.852,1.904 0.852,3.408 v 7.392 h -1.968 v -7.128 c 0,-1.104 -0.176,-1.9 -0.528,-2.388 -0.352,-0.488 -0.912,-0.732 -1.68,-0.732 -0.608,0 -1.144,0.152 -1.608,0.456 -0.464,0.304 -0.992,0.752 -1.584,1.344 v 8.448 z"
   style="fill:#bfbfbf;fill-rule:nonzero"
   id="path142"
   inkscape:connector-curvature="0" />
            <path
   d="m 649.183,223.733 c -0.832,0 -1.624,-0.152 -2.376,-0.456 -0.752,-0.304 -1.408,-0.688 -1.968,-1.152 l 0.984,-1.32 c 0.512,0.416 1.036,0.752 1.572,1.008 0.536,0.256 1.156,0.384 1.86,0.384 0.768,0 1.344,-0.176 1.728,-0.528 0.384,-0.352 0.576,-0.784 0.576,-1.296 0,-0.304 -0.08,-0.568 -0.24,-0.792 -0.16,-0.224 -0.364,-0.42 -0.612,-0.588 -0.248,-0.168 -0.532,-0.316 -0.852,-0.444 -0.32,-0.128 -0.64,-0.256 -0.96,-0.384 -0.416,-0.144 -0.832,-0.308 -1.248,-0.492 -0.416,-0.184 -0.788,-0.408 -1.116,-0.672 -0.328,-0.264 -0.596,-0.572 -0.804,-0.924 -0.208,-0.352 -0.312,-0.776 -0.312,-1.272 0,-0.464 0.092,-0.9 0.276,-1.308 0.184,-0.408 0.448,-0.76 0.792,-1.056 0.344,-0.296 0.764,-0.528 1.26,-0.696 0.496,-0.168 1.056,-0.252 1.68,-0.252 0.736,0 1.412,0.128 2.028,0.384 0.616,0.256 1.148,0.568 1.596,0.936 l -0.936,1.248 c -0.4,-0.304 -0.816,-0.552 -1.248,-0.744 -0.432,-0.192 -0.904,-0.288 -1.416,-0.288 -0.736,0 -1.276,0.168 -1.62,0.504 -0.344,0.336 -0.516,0.728 -0.516,1.176 0,0.272 0.072,0.508 0.216,0.708 0.144,0.2 0.336,0.376 0.576,0.528 0.24,0.152 0.516,0.288 0.828,0.408 0.312,0.12 0.636,0.244 0.972,0.372 0.416,0.16 0.836,0.328 1.26,0.504 0.424,0.176 0.804,0.396 1.14,0.66 0.336,0.264 0.612,0.588 0.828,0.972 0.216,0.384 0.324,0.848 0.324,1.392 0,0.48 -0.092,0.928 -0.276,1.344 -0.184,0.416 -0.456,0.784 -0.816,1.104 -0.36,0.32 -0.808,0.572 -1.344,0.756 -0.536,0.184 -1.148,0.276 -1.836,0.276 z"
   style="fill:#bfbfbf;fill-rule:nonzero"
   id="path144"
   inkscape:connector-curvature="0" />
        </g>
        <g
   transform="translate(520.284,342.299)"
   id="g172">
            <path
   d="m 526.519,223.445 v -15.744 h 9.072 v 1.68 h -7.08 v 5.328 h 6 v 1.68 h -6 v 7.056 z"
   style="fill:#6c7a89;fill-rule:nonzero"
   id="path148"
   inkscape:connector-curvature="0" />
            <path
   d="m 540.055,223.733 c -0.976,0 -1.788,-0.288 -2.436,-0.864 -0.648,-0.576 -0.972,-1.392 -0.972,-2.448 0,-1.28 0.568,-2.26 1.704,-2.94 1.136,-0.68 2.952,-1.156 5.448,-1.428 0,-0.368 -0.036,-0.728 -0.108,-1.08 -0.072,-0.352 -0.196,-0.664 -0.372,-0.936 -0.176,-0.272 -0.42,-0.492 -0.732,-0.66 -0.312,-0.168 -0.708,-0.252 -1.188,-0.252 -0.672,0 -1.304,0.128 -1.896,0.384 -0.592,0.256 -1.12,0.544 -1.584,0.864 l -0.768,-1.368 c 0.544,-0.352 1.208,-0.692 1.992,-1.02 0.784,-0.328 1.648,-0.492 2.592,-0.492 1.424,0 2.456,0.436 3.096,1.308 0.64,0.872 0.96,2.036 0.96,3.492 v 7.152 h -1.632 l -0.168,-1.392 h -0.072 c -0.56,0.464 -1.16,0.86 -1.8,1.188 -0.64,0.328 -1.328,0.492 -2.064,0.492 z m 0.576,-1.584 c 0.56,0 1.088,-0.132 1.584,-0.396 0.496,-0.264 1.024,-0.652 1.584,-1.164 v -3.24 c -0.976,0.128 -1.796,0.28 -2.46,0.456 -0.664,0.176 -1.2,0.384 -1.608,0.624 -0.408,0.24 -0.704,0.516 -0.888,0.828 -0.184,0.312 -0.276,0.652 -0.276,1.02 0,0.672 0.2,1.152 0.6,1.44 0.4,0.288 0.888,0.432 1.464,0.432 z"
   style="fill:#6c7a89;fill-rule:nonzero"
   id="path150"
   inkscape:connector-curvature="0" />
            <path
   d="m 554.071,223.733 c -0.768,0 -1.488,-0.136 -2.16,-0.408 -0.672,-0.272 -1.252,-0.668 -1.74,-1.188 -0.488,-0.52 -0.872,-1.16 -1.152,-1.92 -0.28,-0.76 -0.42,-1.62 -0.42,-2.58 0,-0.976 0.152,-1.844 0.456,-2.604 0.304,-0.76 0.712,-1.404 1.224,-1.932 0.512,-0.528 1.108,-0.928 1.788,-1.2 0.68,-0.272 1.396,-0.408 2.148,-0.408 0.768,0 1.424,0.136 1.968,0.408 0.544,0.272 1.024,0.592 1.44,0.96 l -1.008,1.296 c -0.336,-0.304 -0.692,-0.552 -1.068,-0.744 -0.376,-0.192 -0.796,-0.288 -1.26,-0.288 -0.528,0 -1.016,0.108 -1.464,0.324 -0.448,0.216 -0.832,0.524 -1.152,0.924 -0.32,0.4 -0.572,0.876 -0.756,1.428 -0.184,0.552 -0.276,1.164 -0.276,1.836 0,0.672 0.088,1.28 0.264,1.824 0.176,0.544 0.42,1.012 0.732,1.404 0.312,0.392 0.692,0.696 1.14,0.912 0.448,0.216 0.936,0.324 1.464,0.324 0.544,0 1.044,-0.116 1.5,-0.348 0.456,-0.232 0.868,-0.508 1.236,-0.828 l 0.864,1.32 c -0.528,0.464 -1.112,0.828 -1.752,1.092 -0.64,0.264 -1.312,0.396 -2.016,0.396 z"
   style="fill:#6c7a89;fill-rule:nonzero"
   id="path152"
   inkscape:connector-curvature="0" />
            <path
   d="m 563.839,223.733 c -0.624,0 -1.148,-0.096 -1.572,-0.288 -0.424,-0.192 -0.768,-0.456 -1.032,-0.792 -0.264,-0.336 -0.452,-0.744 -0.564,-1.224 -0.112,-0.48 -0.168,-1.008 -0.168,-1.584 v -6.456 h -1.728 v -1.488 l 1.824,-0.12 0.24,-3.264 h 1.656 v 3.264 h 3.144 v 1.608 h -3.144 v 6.48 c 0,0.72 0.132,1.276 0.396,1.668 0.264,0.392 0.732,0.588 1.404,0.588 0.208,0 0.432,-0.032 0.672,-0.096 0.24,-0.064 0.456,-0.136 0.648,-0.216 l 0.384,1.488 c -0.32,0.112 -0.668,0.212 -1.044,0.3 -0.376,0.088 -0.748,0.132 -1.116,0.132 z"
   style="fill:#6c7a89;fill-rule:nonzero"
   id="path154"
   inkscape:connector-curvature="0" />
            <path
   d="m 572.479,223.733 c -0.72,0 -1.404,-0.136 -2.052,-0.408 -0.648,-0.272 -1.22,-0.668 -1.716,-1.188 -0.496,-0.52 -0.892,-1.16 -1.188,-1.92 -0.296,-0.76 -0.444,-1.62 -0.444,-2.58 0,-0.976 0.148,-1.844 0.444,-2.604 0.296,-0.76 0.692,-1.404 1.188,-1.932 0.496,-0.528 1.068,-0.928 1.716,-1.2 0.648,-0.272 1.332,-0.408 2.052,-0.408 0.72,0 1.404,0.136 2.052,0.408 0.648,0.272 1.22,0.672 1.716,1.2 0.496,0.528 0.892,1.172 1.188,1.932 0.296,0.76 0.444,1.628 0.444,2.604 0,0.96 -0.148,1.82 -0.444,2.58 -0.296,0.76 -0.692,1.4 -1.188,1.92 -0.496,0.52 -1.068,0.916 -1.716,1.188 -0.648,0.272 -1.332,0.408 -2.052,0.408 z m 0,-1.632 c 0.496,0 0.952,-0.108 1.368,-0.324 0.416,-0.216 0.772,-0.52 1.068,-0.912 0.296,-0.392 0.524,-0.86 0.684,-1.404 0.16,-0.544 0.24,-1.152 0.24,-1.824 0,-0.672 -0.08,-1.284 -0.24,-1.836 -0.16,-0.552 -0.388,-1.028 -0.684,-1.428 -0.296,-0.4 -0.652,-0.708 -1.068,-0.924 -0.416,-0.216 -0.872,-0.324 -1.368,-0.324 -0.496,0 -0.952,0.108 -1.368,0.324 -0.416,0.216 -0.772,0.524 -1.068,0.924 -0.296,0.4 -0.524,0.876 -0.684,1.428 -0.16,0.552 -0.24,1.164 -0.24,1.836 0,0.672 0.08,1.28 0.24,1.824 0.16,0.544 0.388,1.012 0.684,1.404 0.296,0.392 0.652,0.696 1.068,0.912 0.416,0.216 0.872,0.324 1.368,0.324 z"
   style="fill:#6c7a89;fill-rule:nonzero"
   id="path156"
   inkscape:connector-curvature="0" />
            <path
   d="m 580.951,223.445 v -11.664 h 1.632 l 0.168,2.112 h 0.072 c 0.4,-0.736 0.884,-1.32 1.452,-1.752 0.568,-0.432 1.188,-0.648 1.86,-0.648 0.464,0 0.88,0.08 1.248,0.24 l -0.384,1.728 c -0.192,-0.064 -0.368,-0.112 -0.528,-0.144 -0.16,-0.032 -0.36,-0.048 -0.6,-0.048 -0.496,0 -1.012,0.2 -1.548,0.6 -0.536,0.4 -1.004,1.096 -1.404,2.088 v 7.488 z"
   style="fill:#6c7a89;fill-rule:nonzero"
   id="path158"
   inkscape:connector-curvature="0" />
            <path
   d="m 596.599,223.445 -4.2,-11.664 h 2.04 l 2.208,6.624 c 0.176,0.576 0.356,1.152 0.54,1.728 0.184,0.576 0.364,1.144 0.54,1.704 h 0.096 c 0.176,-0.56 0.352,-1.128 0.528,-1.704 0.176,-0.576 0.352,-1.152 0.528,-1.728 l 2.208,-6.624 h 1.944 l -4.128,11.664 z"
   style="fill:#6c7a89;fill-rule:nonzero"
   id="path160"
   inkscape:connector-curvature="0" />
            <path
   d="m 609.919,223.733 c -0.784,0 -1.516,-0.14 -2.196,-0.42 -0.68,-0.28 -1.272,-0.68 -1.776,-1.2 -0.504,-0.52 -0.9,-1.156 -1.188,-1.908 -0.288,-0.752 -0.432,-1.608 -0.432,-2.568 0,-0.96 0.148,-1.82 0.444,-2.58 0.296,-0.76 0.688,-1.404 1.176,-1.932 0.488,-0.528 1.044,-0.932 1.668,-1.212 0.624,-0.28 1.272,-0.42 1.944,-0.42 0.736,0 1.396,0.128 1.98,0.384 0.584,0.256 1.072,0.624 1.464,1.104 0.392,0.48 0.692,1.056 0.9,1.728 0.208,0.672 0.312,1.424 0.312,2.256 0,0.208 -0.004,0.412 -0.012,0.612 -0.008,0.2 -0.028,0.372 -0.06,0.516 h -7.872 c 0.08,1.248 0.468,2.236 1.164,2.964 0.696,0.728 1.604,1.092 2.724,1.092 0.56,0 1.076,-0.084 1.548,-0.252 0.472,-0.168 0.924,-0.388 1.356,-0.66 l 0.696,1.296 c -0.512,0.32 -1.08,0.6 -1.704,0.84 -0.624,0.24 -1.336,0.36 -2.136,0.36 z m -3.672,-7.056 h 6.24 c 0,-1.184 -0.252,-2.084 -0.756,-2.7 -0.504,-0.616 -1.212,-0.924 -2.124,-0.924 -0.416,0 -0.812,0.08 -1.188,0.24 -0.376,0.16 -0.716,0.396 -1.02,0.708 -0.304,0.312 -0.556,0.692 -0.756,1.14 -0.2,0.448 -0.332,0.96 -0.396,1.536 z"
   style="fill:#6c7a89;fill-rule:nonzero"
   id="path162"
   inkscape:connector-curvature="0" />
            <path
   d="m 621.703,223.733 c -0.768,0 -1.488,-0.136 -2.16,-0.408 -0.672,-0.272 -1.252,-0.668 -1.74,-1.188 -0.488,-0.52 -0.872,-1.16 -1.152,-1.92 -0.28,-0.76 -0.42,-1.62 -0.42,-2.58 0,-0.976 0.152,-1.844 0.456,-2.604 0.304,-0.76 0.712,-1.404 1.224,-1.932 0.512,-0.528 1.108,-0.928 1.788,-1.2 0.68,-0.272 1.396,-0.408 2.148,-0.408 0.768,0 1.424,0.136 1.968,0.408 0.544,0.272 1.024,0.592 1.44,0.96 l -1.008,1.296 c -0.336,-0.304 -0.692,-0.552 -1.068,-0.744 -0.376,-0.192 -0.796,-0.288 -1.26,-0.288 -0.528,0 -1.016,0.108 -1.464,0.324 -0.448,0.216 -0.832,0.524 -1.152,0.924 -0.32,0.4 -0.572,0.876 -0.756,1.428 -0.184,0.552 -0.276,1.164 -0.276,1.836 0,0.672 0.088,1.28 0.264,1.824 0.176,0.544 0.42,1.012 0.732,1.404 0.312,0.392 0.692,0.696 1.14,0.912 0.448,0.216 0.936,0.324 1.464,0.324 0.544,0 1.044,-0.116 1.5,-0.348 0.456,-0.232 0.868,-0.508 1.236,-0.828 l 0.864,1.32 c -0.528,0.464 -1.112,0.828 -1.752,1.092 -0.64,0.264 -1.312,0.396 -2.016,0.396 z"
   style="fill:#6c7a89;fill-rule:nonzero"
   id="path164"
   inkscape:connector-curvature="0" />
            <path
   d="m 631.471,223.733 c -0.624,0 -1.148,-0.096 -1.572,-0.288 -0.424,-0.192 -0.768,-0.456 -1.032,-0.792 -0.264,-0.336 -0.452,-0.744 -0.564,-1.224 -0.112,-0.48 -0.168,-1.008 -0.168,-1.584 v -6.456 h -1.728 v -1.488 l 1.824,-0.12 0.24,-3.264 h 1.656 v 3.264 h 3.144 v 1.608 h -3.144 v 6.48 c 0,0.72 0.132,1.276 0.396,1.668 0.264,0.392 0.732,0.588 1.404,0.588 0.208,0 0.432,-0.032 0.672,-0.096 0.24,-0.064 0.456,-0.136 0.648,-0.216 l 0.384,1.488 c -0.32,0.112 -0.668,0.212 -1.044,0.3 -0.376,0.088 -0.748,0.132 -1.116,0.132 z"
   style="fill:#6c7a89;fill-rule:nonzero"
   id="path166"
   inkscape:connector-curvature="0" />
            <path
   d="m 640.111,223.733 c -0.72,0 -1.404,-0.136 -2.052,-0.408 -0.648,-0.272 -1.22,-0.668 -1.716,-1.188 -0.496,-0.52 -0.892,-1.16 -1.188,-1.92 -0.296,-0.76 -0.444,-1.62 -0.444,-2.58 0,-0.976 0.148,-1.844 0.444,-2.604 0.296,-0.76 0.692,-1.404 1.188,-1.932 0.496,-0.528 1.068,-0.928 1.716,-1.2 0.648,-0.272 1.332,-0.408 2.052,-0.408 0.72,0 1.404,0.136 2.052,0.408 0.648,0.272 1.22,0.672 1.716,1.2 0.496,0.528 0.892,1.172 1.188,1.932 0.296,0.76 0.444,1.628 0.444,2.604 0,0.96 -0.148,1.82 -0.444,2.58 -0.296,0.76 -0.692,1.4 -1.188,1.92 -0.496,0.52 -1.068,0.916 -1.716,1.188 -0.648,0.272 -1.332,0.408 -2.052,0.408 z m 0,-1.632 c 0.496,0 0.952,-0.108 1.368,-0.324 0.416,-0.216 0.772,-0.52 1.068,-0.912 0.296,-0.392 0.524,-0.86 0.684,-1.404 0.16,-0.544 0.24,-1.152 0.24,-1.824 0,-0.672 -0.08,-1.284 -0.24,-1.836 -0.16,-0.552 -0.388,-1.028 -0.684,-1.428 -0.296,-0.4 -0.652,-0.708 -1.068,-0.924 -0.416,-0.216 -0.872,-0.324 -1.368,-0.324 -0.496,0 -0.952,0.108 -1.368,0.324 -0.416,0.216 -0.772,0.524 -1.068,0.924 -0.296,0.4 -0.524,0.876 -0.684,1.428 -0.16,0.552 -0.24,1.164 -0.24,1.836 0,0.672 0.08,1.28 0.24,1.824 0.16,0.544 0.388,1.012 0.684,1.404 0.296,0.392 0.652,0.696 1.068,0.912 0.416,0.216 0.872,0.324 1.368,0.324 z"
   style="fill:#6c7a89;fill-rule:nonzero"
   id="path168"
   inkscape:connector-curvature="0" />
            <path
   d="m 648.583,223.445 v -11.664 h 1.632 l 0.168,2.112 h 0.072 c 0.4,-0.736 0.884,-1.32 1.452,-1.752 0.568,-0.432 1.188,-0.648 1.86,-0.648 0.464,0 0.88,0.08 1.248,0.24 l -0.384,1.728 c -0.192,-0.064 -0.368,-0.112 -0.528,-0.144 -0.16,-0.032 -0.36,-0.048 -0.6,-0.048 -0.496,0 -1.012,0.2 -1.548,0.6 -0.536,0.4 -1.004,1.096 -1.404,2.088 v 7.488 z"
   style="fill:#6c7a89;fill-rule:nonzero"
   id="path170"
   inkscape:connector-curvature="0" />
        </g>
    </g>
    <g
   transform="translate(-665.8992,-457.82)"
   id="g236">
        <g
   transform="matrix(0.18912,0,0,1,1030.58,193.679)"
   id="g178">
            <path
   d="M 176.988,556.25 H 313.399 V 400 H 177.565 Z"
   style="fill:#649aca;stroke:#000000;stroke-width:1.38999999px"
   id="path176"
   inkscape:connector-curvature="0" />
        </g>
        <g
   transform="matrix(0,0.818063,-1,0,1610.3,452.972)"
   id="g182">
            <path
   d="M 172,566.825 V 573 563.5 554 560.175 H 339.774 V 554 L 363,563.5 339.774,573 v -6.175 z"
   style="fill:#bfbfbf"
   id="path180"
   inkscape:connector-curvature="0" />
        </g>
        <g
   transform="rotate(-90,1032.4415,219.7985)"
   id="g208">
            <path
   d="m 530.863,223.733 c -0.72,0 -1.404,-0.136 -2.052,-0.408 -0.648,-0.272 -1.22,-0.668 -1.716,-1.188 -0.496,-0.52 -0.892,-1.16 -1.188,-1.92 -0.296,-0.76 -0.444,-1.62 -0.444,-2.58 0,-0.976 0.148,-1.844 0.444,-2.604 0.296,-0.76 0.692,-1.404 1.188,-1.932 0.496,-0.528 1.068,-0.928 1.716,-1.2 0.648,-0.272 1.332,-0.408 2.052,-0.408 0.72,0 1.404,0.136 2.052,0.408 0.648,0.272 1.22,0.672 1.716,1.2 0.496,0.528 0.892,1.172 1.188,1.932 0.296,0.76 0.444,1.628 0.444,2.604 0,0.96 -0.148,1.82 -0.444,2.58 -0.296,0.76 -0.692,1.4 -1.188,1.92 -0.496,0.52 -1.068,0.916 -1.716,1.188 -0.648,0.272 -1.332,0.408 -2.052,0.408 z m 0,-1.632 c 0.496,0 0.952,-0.108 1.368,-0.324 0.416,-0.216 0.772,-0.52 1.068,-0.912 0.296,-0.392 0.524,-0.86 0.684,-1.404 0.16,-0.544 0.24,-1.152 0.24,-1.824 0,-0.672 -0.08,-1.284 -0.24,-1.836 -0.16,-0.552 -0.388,-1.028 -0.684,-1.428 -0.296,-0.4 -0.652,-0.708 -1.068,-0.924 -0.416,-0.216 -0.872,-0.324 -1.368,-0.324 -0.496,0 -0.952,0.108 -1.368,0.324 -0.416,0.216 -0.772,0.524 -1.068,0.924 -0.296,0.4 -0.524,0.876 -0.684,1.428 -0.16,0.552 -0.24,1.164 -0.24,1.836 0,0.672 0.08,1.28 0.24,1.824 0.16,0.544 0.388,1.012 0.684,1.404 0.296,0.392 0.652,0.696 1.068,0.912 0.416,0.216 0.872,0.324 1.368,0.324 z"
   style="fill:#bfbfbf;fill-rule:nonzero"
   id="path184"
   inkscape:connector-curvature="0" />
            <path
   d="m 544.495,223.733 c -0.544,0 -1.108,-0.132 -1.692,-0.396 -0.584,-0.264 -1.132,-0.628 -1.644,-1.092 h -0.072 l -0.168,1.2 h -1.584 v -17.088 h 1.968 v 4.656 l -0.048,2.112 c 0.528,-0.464 1.104,-0.852 1.728,-1.164 0.624,-0.312 1.264,-0.468 1.92,-0.468 0.752,0 1.416,0.14 1.992,0.42 0.576,0.28 1.06,0.68 1.452,1.2 0.392,0.52 0.688,1.144 0.888,1.872 0.2,0.728 0.3,1.54 0.3,2.436 0,0.992 -0.136,1.88 -0.408,2.664 -0.272,0.784 -0.64,1.448 -1.104,1.992 -0.464,0.544 -1,0.956 -1.608,1.236 -0.608,0.28 -1.248,0.42 -1.92,0.42 z m -0.336,-1.656 c 0.48,0 0.924,-0.108 1.332,-0.324 0.408,-0.216 0.76,-0.52 1.056,-0.912 0.296,-0.392 0.528,-0.876 0.696,-1.452 0.168,-0.576 0.252,-1.224 0.252,-1.944 0,-0.64 -0.056,-1.224 -0.168,-1.752 -0.112,-0.528 -0.292,-0.98 -0.54,-1.356 -0.248,-0.376 -0.568,-0.668 -0.96,-0.876 -0.392,-0.208 -0.86,-0.312 -1.404,-0.312 -0.944,0 -1.984,0.528 -3.12,1.584 v 6.12 c 0.512,0.448 1.02,0.764 1.524,0.948 0.504,0.184 0.948,0.276 1.332,0.276 z"
   style="fill:#bfbfbf;fill-rule:nonzero"
   id="path186"
   inkscape:connector-curvature="0" />
            <path
   d="m 555.655,223.733 c -0.832,0 -1.624,-0.152 -2.376,-0.456 -0.752,-0.304 -1.408,-0.688 -1.968,-1.152 l 0.984,-1.32 c 0.512,0.416 1.036,0.752 1.572,1.008 0.536,0.256 1.156,0.384 1.86,0.384 0.768,0 1.344,-0.176 1.728,-0.528 0.384,-0.352 0.576,-0.784 0.576,-1.296 0,-0.304 -0.08,-0.568 -0.24,-0.792 -0.16,-0.224 -0.364,-0.42 -0.612,-0.588 -0.248,-0.168 -0.532,-0.316 -0.852,-0.444 -0.32,-0.128 -0.64,-0.256 -0.96,-0.384 -0.416,-0.144 -0.832,-0.308 -1.248,-0.492 -0.416,-0.184 -0.788,-0.408 -1.116,-0.672 -0.328,-0.264 -0.596,-0.572 -0.804,-0.924 -0.208,-0.352 -0.312,-0.776 -0.312,-1.272 0,-0.464 0.092,-0.9 0.276,-1.308 0.184,-0.408 0.448,-0.76 0.792,-1.056 0.344,-0.296 0.764,-0.528 1.26,-0.696 0.496,-0.168 1.056,-0.252 1.68,-0.252 0.736,0 1.412,0.128 2.028,0.384 0.616,0.256 1.148,0.568 1.596,0.936 l -0.936,1.248 c -0.4,-0.304 -0.816,-0.552 -1.248,-0.744 -0.432,-0.192 -0.904,-0.288 -1.416,-0.288 -0.736,0 -1.276,0.168 -1.62,0.504 -0.344,0.336 -0.516,0.728 -0.516,1.176 0,0.272 0.072,0.508 0.216,0.708 0.144,0.2 0.336,0.376 0.576,0.528 0.24,0.152 0.516,0.288 0.828,0.408 0.312,0.12 0.636,0.244 0.972,0.372 0.416,0.16 0.836,0.328 1.26,0.504 0.424,0.176 0.804,0.396 1.14,0.66 0.336,0.264 0.612,0.588 0.828,0.972 0.216,0.384 0.324,0.848 0.324,1.392 0,0.48 -0.092,0.928 -0.276,1.344 -0.184,0.416 -0.456,0.784 -0.816,1.104 -0.36,0.32 -0.808,0.572 -1.344,0.756 -0.536,0.184 -1.148,0.276 -1.836,0.276 z"
   style="fill:#bfbfbf;fill-rule:nonzero"
   id="path188"
   inkscape:connector-curvature="0" />
            <path
   d="m 567.391,223.733 c -0.784,0 -1.516,-0.14 -2.196,-0.42 -0.68,-0.28 -1.272,-0.68 -1.776,-1.2 -0.504,-0.52 -0.9,-1.156 -1.188,-1.908 -0.288,-0.752 -0.432,-1.608 -0.432,-2.568 0,-0.96 0.148,-1.82 0.444,-2.58 0.296,-0.76 0.688,-1.404 1.176,-1.932 0.488,-0.528 1.044,-0.932 1.668,-1.212 0.624,-0.28 1.272,-0.42 1.944,-0.42 0.736,0 1.396,0.128 1.98,0.384 0.584,0.256 1.072,0.624 1.464,1.104 0.392,0.48 0.692,1.056 0.9,1.728 0.208,0.672 0.312,1.424 0.312,2.256 0,0.208 -0.004,0.412 -0.012,0.612 -0.008,0.2 -0.028,0.372 -0.06,0.516 h -7.872 c 0.08,1.248 0.468,2.236 1.164,2.964 0.696,0.728 1.604,1.092 2.724,1.092 0.56,0 1.076,-0.084 1.548,-0.252 0.472,-0.168 0.924,-0.388 1.356,-0.66 l 0.696,1.296 c -0.512,0.32 -1.08,0.6 -1.704,0.84 -0.624,0.24 -1.336,0.36 -2.136,0.36 z m -3.672,-7.056 h 6.24 c 0,-1.184 -0.252,-2.084 -0.756,-2.7 -0.504,-0.616 -1.212,-0.924 -2.124,-0.924 -0.416,0 -0.812,0.08 -1.188,0.24 -0.376,0.16 -0.716,0.396 -1.02,0.708 -0.304,0.312 -0.556,0.692 -0.756,1.14 -0.2,0.448 -0.332,0.96 -0.396,1.536 z"
   style="fill:#bfbfbf;fill-rule:nonzero"
   id="path190"
   inkscape:connector-curvature="0" />
            <path
   d="m 574.567,223.445 v -11.664 h 1.632 l 0.168,2.112 h 0.072 c 0.4,-0.736 0.884,-1.32 1.452,-1.752 0.568,-0.432 1.188,-0.648 1.86,-0.648 0.464,0 0.88,0.08 1.248,0.24 l -0.384,1.728 c -0.192,-0.064 -0.368,-0.112 -0.528,-0.144 -0.16,-0.032 -0.36,-0.048 -0.6,-0.048 -0.496,0 -1.012,0.2 -1.548,0.6 -0.536,0.4 -1.004,1.096 -1.404,2.088 v 7.488 z"
   style="fill:#bfbfbf;fill-rule:nonzero"
   id="path192"
   inkscape:connector-curvature="0" />
            <path
   d="m 586.015,223.445 -4.2,-11.664 h 2.04 l 2.208,6.624 c 0.176,0.576 0.356,1.152 0.54,1.728 0.184,0.576 0.364,1.144 0.54,1.704 h 0.096 c 0.176,-0.56 0.352,-1.128 0.528,-1.704 0.176,-0.576 0.352,-1.152 0.528,-1.728 l 2.208,-6.624 h 1.944 l -4.128,11.664 z"
   style="fill:#bfbfbf;fill-rule:nonzero"
   id="path194"
   inkscape:connector-curvature="0" />
            <path
   d="m 596.911,223.733 c -0.976,0 -1.788,-0.288 -2.436,-0.864 -0.648,-0.576 -0.972,-1.392 -0.972,-2.448 0,-1.28 0.568,-2.26 1.704,-2.94 1.136,-0.68 2.952,-1.156 5.448,-1.428 0,-0.368 -0.036,-0.728 -0.108,-1.08 -0.072,-0.352 -0.196,-0.664 -0.372,-0.936 -0.176,-0.272 -0.42,-0.492 -0.732,-0.66 -0.312,-0.168 -0.708,-0.252 -1.188,-0.252 -0.672,0 -1.304,0.128 -1.896,0.384 -0.592,0.256 -1.12,0.544 -1.584,0.864 l -0.768,-1.368 c 0.544,-0.352 1.208,-0.692 1.992,-1.02 0.784,-0.328 1.648,-0.492 2.592,-0.492 1.424,0 2.456,0.436 3.096,1.308 0.64,0.872 0.96,2.036 0.96,3.492 v 7.152 h -1.632 l -0.168,-1.392 h -0.072 c -0.56,0.464 -1.16,0.86 -1.8,1.188 -0.64,0.328 -1.328,0.492 -2.064,0.492 z m 0.576,-1.584 c 0.56,0 1.088,-0.132 1.584,-0.396 0.496,-0.264 1.024,-0.652 1.584,-1.164 v -3.24 c -0.976,0.128 -1.796,0.28 -2.46,0.456 -0.664,0.176 -1.2,0.384 -1.608,0.624 -0.408,0.24 -0.704,0.516 -0.888,0.828 -0.184,0.312 -0.276,0.652 -0.276,1.02 0,0.672 0.2,1.152 0.6,1.44 0.4,0.288 0.888,0.432 1.464,0.432 z"
   style="fill:#bfbfbf;fill-rule:nonzero"
   id="path196"
   inkscape:connector-curvature="0" />
            <path
   d="m 609.655,223.733 c -0.624,0 -1.148,-0.096 -1.572,-0.288 -0.424,-0.192 -0.768,-0.456 -1.032,-0.792 -0.264,-0.336 -0.452,-0.744 -0.564,-1.224 -0.112,-0.48 -0.168,-1.008 -0.168,-1.584 v -6.456 h -1.728 v -1.488 l 1.824,-0.12 0.24,-3.264 h 1.656 v 3.264 h 3.144 v 1.608 h -3.144 v 6.48 c 0,0.72 0.132,1.276 0.396,1.668 0.264,0.392 0.732,0.588 1.404,0.588 0.208,0 0.432,-0.032 0.672,-0.096 0.24,-0.064 0.456,-0.136 0.648,-0.216 l 0.384,1.488 c -0.32,0.112 -0.668,0.212 -1.044,0.3 -0.376,0.088 -0.748,0.132 -1.116,0.132 z"
   style="fill:#bfbfbf;fill-rule:nonzero"
   id="path198"
   inkscape:connector-curvature="0" />
            <path
   d="m 614.095,223.445 v -11.664 h 1.968 v 11.664 z m 1.008,-14.064 c -0.384,0 -0.708,-0.12 -0.972,-0.36 -0.264,-0.24 -0.396,-0.544 -0.396,-0.912 0,-0.384 0.132,-0.692 0.396,-0.924 0.264,-0.232 0.588,-0.348 0.972,-0.348 0.384,0 0.708,0.116 0.972,0.348 0.264,0.232 0.396,0.54 0.396,0.924 0,0.368 -0.132,0.672 -0.396,0.912 -0.264,0.24 -0.588,0.36 -0.972,0.36 z"
   style="fill:#bfbfbf;fill-rule:nonzero"
   id="path200"
   inkscape:connector-curvature="0" />
            <path
   d="m 624.535,223.733 c -0.72,0 -1.404,-0.136 -2.052,-0.408 -0.648,-0.272 -1.22,-0.668 -1.716,-1.188 -0.496,-0.52 -0.892,-1.16 -1.188,-1.92 -0.296,-0.76 -0.444,-1.62 -0.444,-2.58 0,-0.976 0.148,-1.844 0.444,-2.604 0.296,-0.76 0.692,-1.404 1.188,-1.932 0.496,-0.528 1.068,-0.928 1.716,-1.2 0.648,-0.272 1.332,-0.408 2.052,-0.408 0.72,0 1.404,0.136 2.052,0.408 0.648,0.272 1.22,0.672 1.716,1.2 0.496,0.528 0.892,1.172 1.188,1.932 0.296,0.76 0.444,1.628 0.444,2.604 0,0.96 -0.148,1.82 -0.444,2.58 -0.296,0.76 -0.692,1.4 -1.188,1.92 -0.496,0.52 -1.068,0.916 -1.716,1.188 -0.648,0.272 -1.332,0.408 -2.052,0.408 z m 0,-1.632 c 0.496,0 0.952,-0.108 1.368,-0.324 0.416,-0.216 0.772,-0.52 1.068,-0.912 0.296,-0.392 0.524,-0.86 0.684,-1.404 0.16,-0.544 0.24,-1.152 0.24,-1.824 0,-0.672 -0.08,-1.284 -0.24,-1.836 -0.16,-0.552 -0.388,-1.028 -0.684,-1.428 -0.296,-0.4 -0.652,-0.708 -1.068,-0.924 -0.416,-0.216 -0.872,-0.324 -1.368,-0.324 -0.496,0 -0.952,0.108 -1.368,0.324 -0.416,0.216 -0.772,0.524 -1.068,0.924 -0.296,0.4 -0.524,0.876 -0.684,1.428 -0.16,0.552 -0.24,1.164 -0.24,1.836 0,0.672 0.08,1.28 0.24,1.824 0.16,0.544 0.388,1.012 0.684,1.404 0.296,0.392 0.652,0.696 1.068,0.912 0.416,0.216 0.872,0.324 1.368,0.324 z"
   style="fill:#bfbfbf;fill-rule:nonzero"
   id="path202"
   inkscape:connector-curvature="0" />
            <path
   d="m 633.007,223.445 v -11.664 h 1.632 l 0.168,1.68 h 0.072 c 0.56,-0.56 1.148,-1.028 1.764,-1.404 0.616,-0.376 1.332,-0.564 2.148,-0.564 1.232,0 2.132,0.384 2.7,1.152 0.568,0.768 0.852,1.904 0.852,3.408 v 7.392 h -1.968 v -7.128 c 0,-1.104 -0.176,-1.9 -0.528,-2.388 -0.352,-0.488 -0.912,-0.732 -1.68,-0.732 -0.608,0 -1.144,0.152 -1.608,0.456 -0.464,0.304 -0.992,0.752 -1.584,1.344 v 8.448 z"
   style="fill:#bfbfbf;fill-rule:nonzero"
   id="path204"
   inkscape:connector-curvature="0" />
            <path
   d="m 649.183,223.733 c -0.832,0 -1.624,-0.152 -2.376,-0.456 -0.752,-0.304 -1.408,-0.688 -1.968,-1.152 l 0.984,-1.32 c 0.512,0.416 1.036,0.752 1.572,1.008 0.536,0.256 1.156,0.384 1.86,0.384 0.768,0 1.344,-0.176 1.728,-0.528 0.384,-0.352 0.576,-0.784 0.576,-1.296 0,-0.304 -0.08,-0.568 -0.24,-0.792 -0.16,-0.224 -0.364,-0.42 -0.612,-0.588 -0.248,-0.168 -0.532,-0.316 -0.852,-0.444 -0.32,-0.128 -0.64,-0.256 -0.96,-0.384 -0.416,-0.144 -0.832,-0.308 -1.248,-0.492 -0.416,-0.184 -0.788,-0.408 -1.116,-0.672 -0.328,-0.264 -0.596,-0.572 -0.804,-0.924 -0.208,-0.352 -0.312,-0.776 -0.312,-1.272 0,-0.464 0.092,-0.9 0.276,-1.308 0.184,-0.408 0.448,-0.76 0.792,-1.056 0.344,-0.296 0.764,-0.528 1.26,-0.696 0.496,-0.168 1.056,-0.252 1.68,-0.252 0.736,0 1.412,0.128 2.028,0.384 0.616,0.256 1.148,0.568 1.596,0.936 l -0.936,1.248 c -0.4,-0.304 -0.816,-0.552 -1.248,-0.744 -0.432,-0.192 -0.904,-0.288 -1.416,-0.288 -0.736,0 -1.276,0.168 -1.62,0.504 -0.344,0.336 -0.516,0.728 -0.516,1.176 0,0.272 0.072,0.508 0.216,0.708 0.144,0.2 0.336,0.376 0.576,0.528 0.24,0.152 0.516,0.288 0.828,0.408 0.312,0.12 0.636,0.244 0.972,0.372 0.416,0.16 0.836,0.328 1.26,0.504 0.424,0.176 0.804,0.396 1.14,0.66 0.336,0.264 0.612,0.588 0.828,0.972 0.216,0.384 0.324,0.848 0.324,1.392 0,0.48 -0.092,0.928 -0.276,1.344 -0.184,0.416 -0.456,0.784 -0.816,1.104 -0.36,0.32 -0.808,0.572 -1.344,0.756 -0.536,0.184 -1.148,0.276 -1.836,0.276 z"
   style="fill:#bfbfbf;fill-rule:nonzero"
   id="path206"
   inkscape:connector-curvature="0" />
        </g>
        <g
   transform="translate(520.284,342.299)"
   id="g234">
            <path
   d="m 526.519,223.445 v -15.744 h 9.072 v 1.68 h -7.08 v 5.328 h 6 v 1.68 h -6 v 7.056 z"
   style="fill:#6c7a89;fill-rule:nonzero"
   id="path210"
   inkscape:connector-curvature="0" />
            <path
   d="m 540.055,223.733 c -0.976,0 -1.788,-0.288 -2.436,-0.864 -0.648,-0.576 -0.972,-1.392 -0.972,-2.448 0,-1.28 0.568,-2.26 1.704,-2.94 1.136,-0.68 2.952,-1.156 5.448,-1.428 0,-0.368 -0.036,-0.728 -0.108,-1.08 -0.072,-0.352 -0.196,-0.664 -0.372,-0.936 -0.176,-0.272 -0.42,-0.492 -0.732,-0.66 -0.312,-0.168 -0.708,-0.252 -1.188,-0.252 -0.672,0 -1.304,0.128 -1.896,0.384 -0.592,0.256 -1.12,0.544 -1.584,0.864 l -0.768,-1.368 c 0.544,-0.352 1.208,-0.692 1.992,-1.02 0.784,-0.328 1.648,-0.492 2.592,-0.492 1.424,0 2.456,0.436 3.096,1.308 0.64,0.872 0.96,2.036 0.96,3.492 v 7.152 h -1.632 l -0.168,-1.392 h -0.072 c -0.56,0.464 -1.16,0.86 -1.8,1.188 -0.64,0.328 -1.328,0.492 -2.064,0.492 z m 0.576,-1.584 c 0.56,0 1.088,-0.132 1.584,-0.396 0.496,-0.264 1.024,-0.652 1.584,-1.164 v -3.24 c -0.976,0.128 -1.796,0.28 -2.46,0.456 -0.664,0.176 -1.2,0.384 -1.608,0.624 -0.408,0.24 -0.704,0.516 -0.888,0.828 -0.184,0.312 -0.276,0.652 -0.276,1.02 0,0.672 0.2,1.152 0.6,1.44 0.4,0.288 0.888,0.432 1.464,0.432 z"
   style="fill:#6c7a89;fill-rule:nonzero"
   id="path212"
   inkscape:connector-curvature="0" />
            <path
   d="m 554.071,223.733 c -0.768,0 -1.488,-0.136 -2.16,-0.408 -0.672,-0.272 -1.252,-0.668 -1.74,-1.188 -0.488,-0.52 -0.872,-1.16 -1.152,-1.92 -0.28,-0.76 -0.42,-1.62 -0.42,-2.58 0,-0.976 0.152,-1.844 0.456,-2.604 0.304,-0.76 0.712,-1.404 1.224,-1.932 0.512,-0.528 1.108,-0.928 1.788,-1.2 0.68,-0.272 1.396,-0.408 2.148,-0.408 0.768,0 1.424,0.136 1.968,0.408 0.544,0.272 1.024,0.592 1.44,0.96 l -1.008,1.296 c -0.336,-0.304 -0.692,-0.552 -1.068,-0.744 -0.376,-0.192 -0.796,-0.288 -1.26,-0.288 -0.528,0 -1.016,0.108 -1.464,0.324 -0.448,0.216 -0.832,0.524 -1.152,0.924 -0.32,0.4 -0.572,0.876 -0.756,1.428 -0.184,0.552 -0.276,1.164 -0.276,1.836 0,0.672 0.088,1.28 0.264,1.824 0.176,0.544 0.42,1.012 0.732,1.404 0.312,0.392 0.692,0.696 1.14,0.912 0.448,0.216 0.936,0.324 1.464,0.324 0.544,0 1.044,-0.116 1.5,-0.348 0.456,-0.232 0.868,-0.508 1.236,-0.828 l 0.864,1.32 c -0.528,0.464 -1.112,0.828 -1.752,1.092 -0.64,0.264 -1.312,0.396 -2.016,0.396 z"
   style="fill:#6c7a89;fill-rule:nonzero"
   id="path214"
   inkscape:connector-curvature="0" />
            <path
   d="m 563.839,223.733 c -0.624,0 -1.148,-0.096 -1.572,-0.288 -0.424,-0.192 -0.768,-0.456 -1.032,-0.792 -0.264,-0.336 -0.452,-0.744 -0.564,-1.224 -0.112,-0.48 -0.168,-1.008 -0.168,-1.584 v -6.456 h -1.728 v -1.488 l 1.824,-0.12 0.24,-3.264 h 1.656 v 3.264 h 3.144 v 1.608 h -3.144 v 6.48 c 0,0.72 0.132,1.276 0.396,1.668 0.264,0.392 0.732,0.588 1.404,0.588 0.208,0 0.432,-0.032 0.672,-0.096 0.24,-0.064 0.456,-0.136 0.648,-0.216 l 0.384,1.488 c -0.32,0.112 -0.668,0.212 -1.044,0.3 -0.376,0.088 -0.748,0.132 -1.116,0.132 z"
   style="fill:#6c7a89;fill-rule:nonzero"
   id="path216"
   inkscape:connector-curvature="0" />
            <path
   d="m 572.479,223.733 c -0.72,0 -1.404,-0.136 -2.052,-0.408 -0.648,-0.272 -1.22,-0.668 -1.716,-1.188 -0.496,-0.52 -0.892,-1.16 -1.188,-1.92 -0.296,-0.76 -0.444,-1.62 -0.444,-2.58 0,-0.976 0.148,-1.844 0.444,-2.604 0.296,-0.76 0.692,-1.404 1.188,-1.932 0.496,-0.528 1.068,-0.928 1.716,-1.2 0.648,-0.272 1.332,-0.408 2.052,-0.408 0.72,0 1.404,0.136 2.052,0.408 0.648,0.272 1.22,0.672 1.716,1.2 0.496,0.528 0.892,1.172 1.188,1.932 0.296,0.76 0.444,1.628 0.444,2.604 0,0.96 -0.148,1.82 -0.444,2.58 -0.296,0.76 -0.692,1.4 -1.188,1.92 -0.496,0.52 -1.068,0.916 -1.716,1.188 -0.648,0.272 -1.332,0.408 -2.052,0.408 z m 0,-1.632 c 0.496,0 0.952,-0.108 1.368,-0.324 0.416,-0.216 0.772,-0.52 1.068,-0.912 0.296,-0.392 0.524,-0.86 0.684,-1.404 0.16,-0.544 0.24,-1.152 0.24,-1.824 0,-0.672 -0.08,-1.284 -0.24,-1.836 -0.16,-0.552 -0.388,-1.028 -0.684,-1.428 -0.296,-0.4 -0.652,-0.708 -1.068,-0.924 -0.416,-0.216 -0.872,-0.324 -1.368,-0.324 -0.496,0 -0.952,0.108 -1.368,0.324 -0.416,0.216 -0.772,0.524 -1.068,0.924 -0.296,0.4 -0.524,0.876 -0.684,1.428 -0.16,0.552 -0.24,1.164 -0.24,1.836 0,0.672 0.08,1.28 0.24,1.824 0.16,0.544 0.388,1.012 0.684,1.404 0.296,0.392 0.652,0.696 1.068,0.912 0.416,0.216 0.872,0.324 1.368,0.324 z"
   style="fill:#6c7a89;fill-rule:nonzero"
   id="path218"
   inkscape:connector-curvature="0" />
            <path
   d="m 580.951,223.445 v -11.664 h 1.632 l 0.168,2.112 h 0.072 c 0.4,-0.736 0.884,-1.32 1.452,-1.752 0.568,-0.432 1.188,-0.648 1.86,-0.648 0.464,0 0.88,0.08 1.248,0.24 l -0.384,1.728 c -0.192,-0.064 -0.368,-0.112 -0.528,-0.144 -0.16,-0.032 -0.36,-0.048 -0.6,-0.048 -0.496,0 -1.012,0.2 -1.548,0.6 -0.536,0.4 -1.004,1.096 -1.404,2.088 v 7.488 z"
   style="fill:#6c7a89;fill-rule:nonzero"
   id="path220"
   inkscape:connector-curvature="0" />
            <path
   d="m 596.599,223.445 -4.2,-11.664 h 2.04 l 2.208,6.624 c 0.176,0.576 0.356,1.152 0.54,1.728 0.184,0.576 0.364,1.144 0.54,1.704 h 0.096 c 0.176,-0.56 0.352,-1.128 0.528,-1.704 0.176,-0.576 0.352,-1.152 0.528,-1.728 l 2.208,-6.624 h 1.944 l -4.128,11.664 z"
   style="fill:#6c7a89;fill-rule:nonzero"
   id="path222"
   inkscape:connector-curvature="0" />
            <path
   d="m 609.919,223.733 c -0.784,0 -1.516,-0.14 -2.196,-0.42 -0.68,-0.28 -1.272,-0.68 -1.776,-1.2 -0.504,-0.52 -0.9,-1.156 -1.188,-1.908 -0.288,-0.752 -0.432,-1.608 -0.432,-2.568 0,-0.96 0.148,-1.82 0.444,-2.58 0.296,-0.76 0.688,-1.404 1.176,-1.932 0.488,-0.528 1.044,-0.932 1.668,-1.212 0.624,-0.28 1.272,-0.42 1.944,-0.42 0.736,0 1.396,0.128 1.98,0.384 0.584,0.256 1.072,0.624 1.464,1.104 0.392,0.48 0.692,1.056 0.9,1.728 0.208,0.672 0.312,1.424 0.312,2.256 0,0.208 -0.004,0.412 -0.012,0.612 -0.008,0.2 -0.028,0.372 -0.06,0.516 h -7.872 c 0.08,1.248 0.468,2.236 1.164,2.964 0.696,0.728 1.604,1.092 2.724,1.092 0.56,0 1.076,-0.084 1.548,-0.252 0.472,-0.168 0.924,-0.388 1.356,-0.66 l 0.696,1.296 c -0.512,0.32 -1.08,0.6 -1.704,0.84 -0.624,0.24 -1.336,0.36 -2.136,0.36 z m -3.672,-7.056 h 6.24 c 0,-1.184 -0.252,-2.084 -0.756,-2.7 -0.504,-0.616 -1.212,-0.924 -2.124,-0.924 -0.416,0 -0.812,0.08 -1.188,0.24 -0.376,0.16 -0.716,0.396 -1.02,0.708 -0.304,0.312 -0.556,0.692 -0.756,1.14 -0.2,0.448 -0.332,0.96 -0.396,1.536 z"
   style="fill:#6c7a89;fill-rule:nonzero"
   id="path224"
   inkscape:connector-curvature="0" />
            <path
   d="m 621.703,223.733 c -0.768,0 -1.488,-0.136 -2.16,-0.408 -0.672,-0.272 -1.252,-0.668 -1.74,-1.188 -0.488,-0.52 -0.872,-1.16 -1.152,-1.92 -0.28,-0.76 -0.42,-1.62 -0.42,-2.58 0,-0.976 0.152,-1.844 0.456,-2.604 0.304,-0.76 0.712,-1.404 1.224,-1.932 0.512,-0.528 1.108,-0.928 1.788,-1.2 0.68,-0.272 1.396,-0.408 2.148,-0.408 0.768,0 1.424,0.136 1.968,0.408 0.544,0.272 1.024,0.592 1.44,0.96 l -1.008,1.296 c -0.336,-0.304 -0.692,-0.552 -1.068,-0.744 -0.376,-0.192 -0.796,-0.288 -1.26,-0.288 -0.528,0 -1.016,0.108 -1.464,0.324 -0.448,0.216 -0.832,0.524 -1.152,0.924 -0.32,0.4 -0.572,0.876 -0.756,1.428 -0.184,0.552 -0.276,1.164 -0.276,1.836 0,0.672 0.088,1.28 0.264,1.824 0.176,0.544 0.42,1.012 0.732,1.404 0.312,0.392 0.692,0.696 1.14,0.912 0.448,0.216 0.936,0.324 1.464,0.324 0.544,0 1.044,-0.116 1.5,-0.348 0.456,-0.232 0.868,-0.508 1.236,-0.828 l 0.864,1.32 c -0.528,0.464 -1.112,0.828 -1.752,1.092 -0.64,0.264 -1.312,0.396 -2.016,0.396 z"
   style="fill:#6c7a89;fill-rule:nonzero"
   id="path226"
   inkscape:connector-curvature="0" />
            <path
   d="m 631.471,223.733 c -0.624,0 -1.148,-0.096 -1.572,-0.288 -0.424,-0.192 -0.768,-0.456 -1.032,-0.792 -0.264,-0.336 -0.452,-0.744 -0.564,-1.224 -0.112,-0.48 -0.168,-1.008 -0.168,-1.584 v -6.456 h -1.728 v -1.488 l 1.824,-0.12 0.24,-3.264 h 1.656 v 3.264 h 3.144 v 1.608 h -3.144 v 6.48 c 0,0.72 0.132,1.276 0.396,1.668 0.264,0.392 0.732,0.588 1.404,0.588 0.208,0 0.432,-0.032 0.672,-0.096 0.24,-0.064 0.456,-0.136 0.648,-0.216 l 0.384,1.488 c -0.32,0.112 -0.668,0.212 -1.044,0.3 -0.376,0.088 -0.748,0.132 -1.116,0.132 z"
   style="fill:#6c7a89;fill-rule:nonzero"
   id="path228"
   inkscape:connector-curvature="0" />
            <path
   d="m 640.111,223.733 c -0.72,0 -1.404,-0.136 -2.052,-0.408 -0.648,-0.272 -1.22,-0.668 -1.716,-1.188 -0.496,-0.52 -0.892,-1.16 -1.188,-1.92 -0.296,-0.76 -0.444,-1.62 -0.444,-2.58 0,-0.976 0.148,-1.844 0.444,-2.604 0.296,-0.76 0.692,-1.404 1.188,-1.932 0.496,-0.528 1.068,-0.928 1.716,-1.2 0.648,-0.272 1.332,-0.408 2.052,-0.408 0.72,0 1.404,0.136 2.052,0.408 0.648,0.272 1.22,0.672 1.716,1.2 0.496,0.528 0.892,1.172 1.188,1.932 0.296,0.76 0.444,1.628 0.444,2.604 0,0.96 -0.148,1.82 -0.444,2.58 -0.296,0.76 -0.692,1.4 -1.188,1.92 -0.496,0.52 -1.068,0.916 -1.716,1.188 -0.648,0.272 -1.332,0.408 -2.052,0.408 z m 0,-1.632 c 0.496,0 0.952,-0.108 1.368,-0.324 0.416,-0.216 0.772,-0.52 1.068,-0.912 0.296,-0.392 0.524,-0.86 0.684,-1.404 0.16,-0.544 0.24,-1.152 0.24,-1.824 0,-0.672 -0.08,-1.284 -0.24,-1.836 -0.16,-0.552 -0.388,-1.028 -0.684,-1.428 -0.296,-0.4 -0.652,-0.708 -1.068,-0.924 -0.416,-0.216 -0.872,-0.324 -1.368,-0.324 -0.496,0 -0.952,0.108 -1.368,0.324 -0.416,0.216 -0.772,0.524 -1.068,0.924 -0.296,0.4 -0.524,0.876 -0.684,1.428 -0.16,0.552 -0.24,1.164 -0.24,1.836 0,0.672 0.08,1.28 0.24,1.824 0.16,0.544 0.388,1.012 0.684,1.404 0.296,0.392 0.652,0.696 1.068,0.912 0.416,0.216 0.872,0.324 1.368,0.324 z"
   style="fill:#6c7a89;fill-rule:nonzero"
   id="path230"
   inkscape:connector-curvature="0" />
            <path
   d="m 648.583,223.445 v -11.664 h 1.632 l 0.168,2.112 h 0.072 c 0.4,-0.736 0.884,-1.32 1.452,-1.752 0.568,-0.432 1.188,-0.648 1.86,-0.648 0.464,0 0.88,0.08 1.248,0.24 l -0.384,1.728 c -0.192,-0.064 -0.368,-0.112 -0.528,-0.144 -0.16,-0.032 -0.36,-0.048 -0.6,-0.048 -0.496,0 -1.012,0.2 -1.548,0.6 -0.536,0.4 -1.004,1.096 -1.404,2.088 v 7.488 z"
   style="fill:#6c7a89;fill-rule:nonzero"
   id="path232"
   inkscape:connector-curvature="0" />
        </g>
    </g>
</svg>